<svg id="Layer_1" data-name="Layer 1" xmlns="http://www.w3.org/2000/svg" viewBox="0 0 421.94 311.58"><path d="M88.9,353.93c0-.11,0-.16.14-.16a.61.61,0,0,0,.24-.07,1.41,1.41,0,0,1-.53-.73,1.65,1.65,0,0,0-.54-.76,3,3,0,0,0,.06-.4c0-.13.11-.2.29-.21a4.76,4.76,0,0,1-.27-1.54,5.75,5.75,0,0,1,.21-1.43,9.67,9.67,0,0,1,.5-1.39c.21-.47.4-.94.6-1.41q.32-.15.42,0c.06.08.15,0,.25-.11a2.3,2.3,0,0,0,.64-1.07,2.58,2.58,0,0,0,0-1.14q.15-1,.39-2.07a12.27,12.27,0,0,1,.64-2,9.39,9.39,0,0,1,.92-1.66,5,5,0,0,1,1.19-1.23,6.23,6.23,0,0,1,1.17-1.08,9,9,0,0,1,1.61-.91,9.43,9.43,0,0,1,1.84-.6,6.56,6.56,0,0,1,1.84-.15c.13,0,.2,0,.2-.13s.06-.19.16-.21a15.91,15.91,0,0,1,3.49.09,7.6,7.6,0,0,1,2.81.95,26.16,26.16,0,0,1,1.82,2.14,14,14,0,0,1,1.52,2.48,10.91,10.91,0,0,1,.89,2.82,8.81,8.81,0,0,1,0,3.11,10.31,10.31,0,0,1-2.66,3.25,23.65,23.65,0,0,1-3.7,2.43,42.09,42.09,0,0,1-4.24,1.94q-2.22.85-4.3,1.77c.16.66.3,1.38.42,2.14a14.82,14.82,0,0,1,.21,2.32,14,14,0,0,1-.16,2.33,8.62,8.62,0,0,1-.67,2.22,5.58,5.58,0,0,0-1.53.46c-.51.22-1,.44-1.36.65l-.65-.24a1.75,1.75,0,0,0-.74-.07,1.17,1.17,0,0,0-.38-.89l-.83-.82a2.56,2.56,0,0,1-.59-.85.81.81,0,0,1,.26-.92A1.1,1.1,0,0,1,90,360a.53.53,0,0,0,.41.07,4.48,4.48,0,0,1-.15-1.63c0-.65.05-1.29.05-1.92a5.16,5.16,0,0,0-.28-1.69A1.38,1.38,0,0,0,88.9,353.93Zm8-10.63c0,.3-.08.55-.1.78a4.94,4.94,0,0,1-.09.61c0,.19-.09.38-.14.57s-.11.41-.17.65a.59.59,0,0,0,.37.28.57.57,0,0,1,.36.28,4.81,4.81,0,0,1,1-.6,10.69,10.69,0,0,1,1-.41c.34-.12.68-.25,1-.4a4.75,4.75,0,0,0,1-.58,7.12,7.12,0,0,1,1.1-.66c.39-.19.77-.39,1.14-.59a11.5,11.5,0,0,0,1.08-.66,3.2,3.2,0,0,0,.84-.84,4.51,4.51,0,0,0-1.74-.55,8.77,8.77,0,0,0-2.35,0,8.47,8.47,0,0,0-2.4.65A4.51,4.51,0,0,0,96.91,343.3Z" transform="translate(-88.21 -272.29)" style="fill:#6953a3"/><path d="M111.08,343.06a3.37,3.37,0,0,1,.58-1.5,6.18,6.18,0,0,1,1.08-1.2,8.77,8.77,0,0,1,1.32-.94c.46-.27.91-.51,1.33-.72.91-.62,1.9-1.24,3-1.84s2.15-1.18,3.28-1.71a21.85,21.85,0,0,1,3.53-1.3,11.71,11.71,0,0,1,4-.31,2.69,2.69,0,0,0,.47.65l.6.57a6,6,0,0,1,.56.57,1.67,1.67,0,0,1,.36.61,3,3,0,0,1,.74.6,1.42,1.42,0,0,1,.27,1c-.21.25-.41.48-.62.69a4.83,4.83,0,0,1-.68.58,8.57,8.57,0,0,0-2.85.33c-.94.26-1.77.49-2.51.68a1.13,1.13,0,0,0-.87-.18,3.73,3.73,0,0,0-.94.35l-.95.49a2,2,0,0,1-.94.26,2.07,2.07,0,0,1-.84.58l-1.15.4c0,.13,0,.2.13.22s.11.1.08.24a1.3,1.3,0,0,0,.65.26l.8.07a3.24,3.24,0,0,1,.74.14.93.93,0,0,1,.52.46,1.83,1.83,0,0,1,1,.07,2.41,2.41,0,0,1,.8.5,3,3,0,0,1,.55.73,2.31,2.31,0,0,1,.28.73c.12.19.22.26.32.21a.41.41,0,0,1,.36.08,2.35,2.35,0,0,0,.76.88,4.4,4.4,0,0,1,.92,1c.18.61.32,1.15.44,1.63a3.53,3.53,0,0,1,0,1.52,8.19,8.19,0,0,1-1.07,2.77,13.05,13.05,0,0,1-1.86,2.36,17,17,0,0,1-2.4,2,29.74,29.74,0,0,1-2.57,1.55.58.58,0,0,0-.29.05c-.1.05-.14,0-.12-.17a1.4,1.4,0,0,1-.59.47,3.16,3.16,0,0,1-.75.2c-.28.05-.56.08-.85.11a3.23,3.23,0,0,0-.8.2c-.21-.14-.4-.28-.57-.41a1.78,1.78,0,0,1-.44-.55c-.12,0-.19,0-.2-.16s-.07-.17-.17-.15a1.2,1.2,0,0,0,.12-.47s-.06-.06-.13-.07l-.18-.06a.14.14,0,0,1-.07-.16,1.28,1.28,0,0,0,0-.72c-.07-.25-.15-.51-.23-.78a2.42,2.42,0,0,1-.1-.79,1,1,0,0,1,.43-.71,7.16,7.16,0,0,0,2.39-.57,11.23,11.23,0,0,0,2-1.11c.61-.43,1.19-.88,1.73-1.34s1.09-.9,1.63-1.29a1.47,1.47,0,0,1,.21-.62,4.46,4.46,0,0,1,.35-.5A2.8,2.8,0,0,0,124,349a1.17,1.17,0,0,0,.15-.61c0-.18-.07-.27-.19-.29s-.19-.1-.22-.24l-.44,0a8.09,8.09,0,0,0-1.74-.38,9.48,9.48,0,0,1-1.66-.31,1,1,0,0,1-.74.26c-.25,0-.57,0-1,0a24.63,24.63,0,0,1-2.5.22,9.22,9.22,0,0,1-2.4-.22,1.81,1.81,0,0,0-.25-.3c-.09-.08-.24-.08-.43,0-.18-.17-.37-.33-.56-.49a6.62,6.62,0,0,1-.53-.53c0-.31,0-.57,0-.79a.81.81,0,0,0-.34-.57c0-.34.06-.62.07-.83A2,2,0,0,0,111.08,343.06Z" transform="translate(-88.21 -272.29)" style="fill:#6953a3"/><path d="M128.85,339.56a3.25,3.25,0,0,1,.58-1.5,6.18,6.18,0,0,1,1.08-1.2,10.09,10.09,0,0,1,1.31-.94c.47-.27.91-.51,1.34-.72.91-.62,1.9-1.24,3-1.84s2.15-1.18,3.27-1.71a22.31,22.31,0,0,1,3.54-1.3,11.71,11.71,0,0,1,4-.31,2.69,2.69,0,0,0,.47.65l.6.57a7.46,7.46,0,0,1,.56.57,1.64,1.64,0,0,1,.35.61,3,3,0,0,1,.74.6,1.37,1.37,0,0,1,.28,1c-.21.25-.42.48-.62.69a5.57,5.57,0,0,1-.69.58,8.9,8.9,0,0,0-2.85.33c-.93.26-1.76.49-2.5.68a1.08,1.08,0,0,0-.87-.17,3.24,3.24,0,0,0-.94.34l-1,.49a2.1,2.1,0,0,1-.94.27,2.12,2.12,0,0,1-.83.57l-1.15.4c0,.13,0,.2.12.22s.11.11.09.24a1.3,1.3,0,0,0,.65.26l.79.07a2.77,2.77,0,0,1,.75.15.91.91,0,0,1,.52.45,1.83,1.83,0,0,1,1,.07,2.41,2.41,0,0,1,.8.5,3,3,0,0,1,.55.73,2.7,2.7,0,0,1,.28.73c.11.19.22.26.31.21a.42.42,0,0,1,.37.08,2.35,2.35,0,0,0,.76.88,4.4,4.4,0,0,1,.92,1c.18.61.32,1.15.44,1.63a3.57,3.57,0,0,1,0,1.53,8.44,8.44,0,0,1-1.07,2.76,12.68,12.68,0,0,1-1.87,2.36,16.31,16.31,0,0,1-2.39,2,29.74,29.74,0,0,1-2.57,1.55.54.54,0,0,0-.3.06c-.09,0-.13,0-.11-.18a1.47,1.47,0,0,1-.59.47,3.29,3.29,0,0,1-.75.2c-.28.05-.56.08-.86.11a3.15,3.15,0,0,0-.79.2c-.21-.14-.4-.28-.57-.41a1.64,1.64,0,0,1-.44-.55.15.15,0,0,1-.2-.15c0-.13-.07-.18-.17-.16a1.2,1.2,0,0,0,.12-.47s-.06-.06-.13-.07l-.19-.06a.15.15,0,0,1-.07-.16,1.27,1.27,0,0,0,0-.72c-.08-.25-.15-.51-.23-.78a2.18,2.18,0,0,1-.1-.79,1,1,0,0,1,.42-.71,7.4,7.4,0,0,0,2.4-.56,11.45,11.45,0,0,0,2-1.12,20,20,0,0,0,1.74-1.34c.54-.47,1.09-.9,1.63-1.29a1.47,1.47,0,0,1,.21-.62,3.45,3.45,0,0,1,.35-.5,3.49,3.49,0,0,0,.33-.49,1.41,1.41,0,0,0,.15-.61c0-.18-.07-.27-.19-.29s-.2-.09-.23-.24l-.43,0a7.65,7.65,0,0,0-1.74-.37,9.42,9.42,0,0,1-1.66-.32.93.93,0,0,1-.74.26c-.26,0-.57,0-1,0a24.88,24.88,0,0,1-2.5.22,9.22,9.22,0,0,1-2.4-.22,1.81,1.81,0,0,0-.25-.3c-.1-.08-.24-.08-.43,0l-.56-.49a4.42,4.42,0,0,1-.53-.53c0-.31,0-.57,0-.79a.81.81,0,0,0-.35-.57c0-.34.06-.62.07-.83A2.19,2.19,0,0,0,128.85,339.56Z" transform="translate(-88.21 -272.29)" style="fill:#6953a3"/><path d="M167.07,330.84a18.42,18.42,0,0,0-2,.52l-2.08.7c-.48.18-.95.33-1.4.47l-1.23.36q-.1.87-.24,1.56c-.09.45-.2.9-.32,1.34s-.21.92-.29,1.39-.14,1-.19,1.48a11.41,11.41,0,0,0-.4,1.22,5.06,5.06,0,0,0-.17,1.22,3.85,3.85,0,0,0-.44,1.3,9.57,9.57,0,0,0-.13,1.13l-.06.47a1.13,1.13,0,0,0-.2.41.42.42,0,0,1-.14.28,2,2,0,0,1-.1.87,2.58,2.58,0,0,0,0,.38,1.63,1.63,0,0,0,0,.25.53.53,0,0,1-.09.52,1.23,1.23,0,0,1,.08.39v.4a1.89,1.89,0,0,0,.06.72l.26.22a.73.73,0,0,1,.19.28,1.66,1.66,0,0,0,.37.12,4,4,0,0,0,.5.17l.41.3a2,2,0,0,1,0,1.78,2.34,2.34,0,0,1-1.76,1.09l-.45.08a1,1,0,0,1-.29-.25l-.52-.09a.76.76,0,0,1-.39-.23l-.86-.22-.38-.12c0-.27-.08-.42-.08-.45a2.3,2.3,0,0,1-.54-.66,5.51,5.51,0,0,1-.37-.78c-.09-.22-.19-.41-.29-.6a2.21,2.21,0,0,0-.35-.47,10.94,10.94,0,0,1-.31-3.73c.13-1.06.28-2.08.45-3.07l.3-1.62a15.3,15.3,0,0,0,.21-1.69l.27-.44c.09-.43.17-.79.23-1.07s.13-.57.2-.87.08-.37.11-.54,0-.33.08-.46l-.41.1a2.6,2.6,0,0,0-.36.13l-.4.13a2.49,2.49,0,0,1-.37.09,1.2,1.2,0,0,1-.38,0,2.13,2.13,0,0,1-.86.36l-.38.08-.21,0h-.17a1.49,1.49,0,0,0-.58.23l-.86.17-.37.08-.18.05-.19.06a3.27,3.27,0,0,1-.57.05,1.93,1.93,0,0,1-.68-.11,2.13,2.13,0,0,0-.73-.52l-.42-.38a1.87,1.87,0,0,0-.2-.4l-.24-.44c-.15-.23-.29-.48-.43-.75a3.37,3.37,0,0,1-.34-1,1.08,1.08,0,0,1,.06-.48c.06-.11.1-.21.14-.3v-.58l.49-.06,1.05-.2c.8-.16,1.6-.35,2.42-.57L152,330l1.48-.45,1.56-.46q.09-.36.18-.69l.34-.26a1.55,1.55,0,0,1,1,0,3.89,3.89,0,0,1,.55.3l1.63-.5q.83-.26,1.65-.57c.83-.3,1.66-.58,2.5-.84a20.32,20.32,0,0,1,2.46-.64,9.59,9.59,0,0,1,1-.16c.33,0,.64-.06.92-.07l.43.19a1.34,1.34,0,0,0,.4.34l.5.29a9.88,9.88,0,0,1,1.09.79,2.27,2.27,0,0,1,.66,1.57,1.6,1.6,0,0,1-.35.61l-.25.52-.38,0a1.57,1.57,0,0,0-.4.14l-.35.2a2.22,2.22,0,0,1-.27.19,1.91,1.91,0,0,1-.32.16,3.75,3.75,0,0,1-.54.09Z" transform="translate(-88.21 -272.29)" style="fill:#6953a3"/><path d="M172.27,343.81a5.6,5.6,0,0,1,.22.54,5.47,5.47,0,0,0,.22.53q-.08.4-.12.78c0,.25-.05.49-.08.73s-.07.31-.09.37a.26.26,0,0,0,0,.12.23.23,0,0,0,0,.09,1.36,1.36,0,0,1,.09.31l-.07.47a1.43,1.43,0,0,1-.36.5,5.15,5.15,0,0,1-.48.37.65.65,0,0,1-.19.17.59.59,0,0,0-.2.17l0,.47-.47.17a4.77,4.77,0,0,1-1,.37l-.45.08-.84-.49a6.27,6.27,0,0,0-.64-.3,2,2,0,0,1-.56-.68,3.55,3.55,0,0,0-.21-.44,1.59,1.59,0,0,0-.31-.6l-.62-.42.38-.42-.55-.63c.25-.28.45-.48.58-.61a2.12,2.12,0,0,0,.31-.39,4.63,4.63,0,0,0,.25-.5c.09-.19.23-.52.43-1l.24-.55.54.16a1.75,1.75,0,0,0,.69.08h.92a9,9,0,0,0,1.25.05,1.74,1.74,0,0,1,1,.21Z" transform="translate(-88.21 -272.29)" style="fill:#6953a3"/><path d="M181,342.09a5.47,5.47,0,0,1,.22.53,5.81,5.81,0,0,0,.23.54q-.08.4-.12.78l-.09.73-.08.36c0,.06,0,.1,0,.12a.18.18,0,0,0,0,.09,2.36,2.36,0,0,1,.08.31l-.06.48a1.59,1.59,0,0,1-.37.5c-.16.13-.31.25-.47.36a.9.9,0,0,1-.2.18.5.5,0,0,0-.2.17l0,.47-.47.17a5,5,0,0,1-1,.36l-.45.09c-.36-.21-.63-.38-.84-.49a3.73,3.73,0,0,0-.64-.3,2.34,2.34,0,0,1-.56-.68,3.07,3.07,0,0,0-.2-.45,1.56,1.56,0,0,0-.32-.59l-.62-.42.38-.42-.55-.63c.25-.28.45-.49.58-.62a1.61,1.61,0,0,0,.31-.39,4.37,4.37,0,0,0,.25-.49l.43-1,.24-.55.54.16a1.87,1.87,0,0,0,.7.07h.91a9,9,0,0,0,1.25,0,1.72,1.72,0,0,1,1,.22Z" transform="translate(-88.21 -272.29)" style="fill:#6953a3"/><path d="M189.77,340.36a5.81,5.81,0,0,1,.23.54,5.6,5.6,0,0,0,.22.54c-.05.26-.09.52-.12.77s-.06.5-.09.73l-.08.37a.3.3,0,0,0,0,.12l0,.09a1.22,1.22,0,0,1,.08.31l-.06.48a1.52,1.52,0,0,1-.37.5,5.32,5.32,0,0,1-.47.36.58.58,0,0,1-.2.17.72.72,0,0,0-.2.18l0,.47-.47.17a5.3,5.3,0,0,1-1.06.36l-.45.09-.83-.5a4.76,4.76,0,0,0-.65-.29,2.38,2.38,0,0,1-.56-.69,2.48,2.48,0,0,0-.2-.44,1.75,1.75,0,0,0-.31-.6l-.63-.41.38-.43-.55-.62c.26-.29.45-.49.58-.62a2.12,2.12,0,0,0,.31-.39,5.46,5.46,0,0,0,.25-.49l.44-1,.24-.55.53.17a1.9,1.9,0,0,0,.7.07h.91a10.91,10.91,0,0,0,1.25,0,1.87,1.87,0,0,1,1,.21Z" transform="translate(-88.21 -272.29)" style="fill:#6953a3"/><path d="M225.87,319.25a18.58,18.58,0,0,0-2,.53l-2.08.7c-.48.18-1,.33-1.4.47l-1.23.36q-.1.87-.24,1.56c-.09.45-.2.9-.32,1.33s-.21.93-.29,1.39-.14,1-.19,1.49a11.41,11.41,0,0,0-.4,1.22,5.06,5.06,0,0,0-.17,1.22,3.85,3.85,0,0,0-.44,1.3A7.83,7.83,0,0,0,217,332l-.06.47a1,1,0,0,0-.2.41.44.44,0,0,1-.14.28,2,2,0,0,1-.1.87,2.6,2.6,0,0,0,0,.37,1.56,1.56,0,0,0,0,.25.53.53,0,0,1-.09.52,1.23,1.23,0,0,1,.08.39v.41a1.89,1.89,0,0,0,.06.72l.26.22a.62.62,0,0,1,.19.27,1.25,1.25,0,0,0,.37.12,2.74,2.74,0,0,0,.5.18l.41.3a2,2,0,0,1,0,1.78,2.3,2.3,0,0,1-1.76,1.08l-.45.09a1,1,0,0,1-.29-.25l-.52-.09a.73.73,0,0,1-.39-.23l-.86-.22-.38-.12c-.05-.27-.08-.42-.08-.45a2.44,2.44,0,0,1-.54-.66,5.51,5.51,0,0,1-.37-.78,5.59,5.59,0,0,0-.3-.6,2,2,0,0,0-.34-.48,10.87,10.87,0,0,1-.31-3.72c.13-1.06.28-2.08.45-3.07l.3-1.62a15.3,15.3,0,0,0,.21-1.69l.27-.44c.09-.43.17-.79.23-1.07s.13-.57.2-.87.07-.37.11-.54.05-.33.08-.46a3.52,3.52,0,0,0-.41.1c-.12,0-.24.08-.36.12a3.24,3.24,0,0,1-.4.14,2.49,2.49,0,0,1-.37.09,1.2,1.2,0,0,1-.38,0,2.11,2.11,0,0,1-.87.36l-.37.08-.21,0H210a1.49,1.49,0,0,0-.58.23l-.86.17-.37.08-.18.05-.19.06a3.27,3.27,0,0,1-.57.05,2,2,0,0,1-.68-.12,2.19,2.19,0,0,0-.73-.51l-.42-.38a3.11,3.11,0,0,0-.2-.41l-.24-.43c-.15-.23-.29-.48-.44-.75a3.7,3.7,0,0,1-.33-1,1.08,1.08,0,0,1,.06-.48c.06-.11.1-.21.14-.3V320l.49-.06,1-.2c.8-.16,1.6-.35,2.41-.57l2.51-.71,1.48-.45,1.56-.46.18-.69.33-.26a1.51,1.51,0,0,1,1,0,3.89,3.89,0,0,1,.55.3l1.63-.5c.55-.17,1.1-.36,1.65-.58.83-.29,1.66-.57,2.5-.84a22.25,22.25,0,0,1,2.46-.63c.35-.07.68-.13,1-.17s.64-.06.92-.06l.43.18a1.23,1.23,0,0,0,.4.35l.5.29a8.72,8.72,0,0,1,1.09.79,2.25,2.25,0,0,1,.66,1.57,1.69,1.69,0,0,1-.35.61l-.25.51-.38,0a1.57,1.57,0,0,0-.4.14l-.35.2-.27.19a1.91,1.91,0,0,1-.32.16c-.22,0-.4.08-.54.09Z" transform="translate(-88.21 -272.29)" style="fill:#6953a3"/><path d="M244.92,330.35A3.17,3.17,0,0,1,245,332a3.35,3.35,0,0,1-.61,1.24,4.18,4.18,0,0,1-1.06.94l-1.21.74c-.23-.08-.44-.18-.66-.27a2,2,0,0,0-.72-.19c-.44-.53-.85-1-1.24-1.4a2.65,2.65,0,0,1-.72-1.5,3,3,0,0,1,0-.42c0-.26,0-.54,0-.85s0-.6,0-.87,0-.41,0-.44a9,9,0,0,0-1.73.73,16.85,16.85,0,0,0-1.67,1.06c-.53.39-1,.77-1.48,1.15s-.83.69-1.12.95a2.89,2.89,0,0,1,0,.57,9.87,9.87,0,0,1-.2,1,6.73,6.73,0,0,1-.32.93q-.19.42-.45.48a1.3,1.3,0,0,0,.15.2.29.29,0,0,1,.06.3,4.14,4.14,0,0,0-.86.57,5.35,5.35,0,0,1-.77.58,3,3,0,0,1-.94.36,2.86,2.86,0,0,1-1.31-.13.5.5,0,0,0-.27-.35,3.17,3.17,0,0,0-.45-.23l-.4-.15c-.11,0-.17-.09-.18-.14s-.19,0-.2-.23.08-.27.27-.2a2.79,2.79,0,0,1-.69-.82,3.94,3.94,0,0,0-.62-.9.58.58,0,0,0,.08-.28c0-.14,0-.25,0-.36a.36.36,0,0,1,.07-.24c0-.06.1-.06.19,0a1.13,1.13,0,0,1-.11-.56c0-.16,0-.31.07-.44a2.71,2.71,0,0,0,0-.4.57.57,0,0,0-.2-.38,4.42,4.42,0,0,0,.44-1.93,13.54,13.54,0,0,0-.11-1.77,2.78,2.78,0,0,0,.32-.84,6.26,6.26,0,0,0,.12-1.05,3.47,3.47,0,0,0-.1-1,2.25,2.25,0,0,0-.28-.74c0-.13.13-.19.39-.19a23.64,23.64,0,0,0-.23-2.84c-.14-1-.22-2-.26-3a8.62,8.62,0,0,1,.27-2.61,2.65,2.65,0,0,1,1.4-1.72,6.05,6.05,0,0,0,.86,1.26,10.27,10.27,0,0,0,1,1l1.08.93a8.64,8.64,0,0,1,1.05,1.11c.07.47.13,1,.18,1.66s.08,1.29.09,2,0,1.31,0,1.92,0,1.15,0,1.59a.29.29,0,0,0,.25.19c.12,0,.16.11.13.32.56-.27,1.16-.53,1.78-.78s1.25-.51,1.87-.79,1.21-.57,1.79-.88a9.54,9.54,0,0,0,1.56-1c-.06-1-.09-2-.08-3a8.67,8.67,0,0,0-.51-3,1.1,1.1,0,0,0,.22-.43.58.58,0,0,1,.32-.37,4.76,4.76,0,0,1-.44-1.46,5.38,5.38,0,0,1,0-1.55,3.41,3.41,0,0,1,.48-1.35,2.2,2.2,0,0,1,1-.87,7.62,7.62,0,0,1,1,1.14l.89,1.26c.3.42.61.8.93,1.17a3.91,3.91,0,0,0,1.13.88c.21.7.42,1.44.6,2.2s.38,1.54.56,2.33c0,1,0,1.93-.12,2.86a19,19,0,0,0,.05,2.91,2.42,2.42,0,0,0-.28.75l-.15.82a6.84,6.84,0,0,1-.19.81,2.7,2.7,0,0,1-.32.71,1.58,1.58,0,0,1,.22.82A1.4,1.4,0,0,0,244.92,330.35Z" transform="translate(-88.21 -272.29)" style="fill:#6953a3"/><path d="M265.52,308.27a1.82,1.82,0,0,1,.09.39,2.18,2.18,0,0,1,0,.25,1.13,1.13,0,0,0,0,.25,2,2,0,0,0,.15.37,4.3,4.3,0,0,1-1.47,2.09,8.86,8.86,0,0,1-2.09,1.11l-2.37.91a7.37,7.37,0,0,0-2.3,1.46,1.13,1.13,0,0,0-.88.17,2.2,2.2,0,0,1-1.11.34,1.32,1.32,0,0,1-.5.43c-.21.1-.43.21-.64.33a1.44,1.44,0,0,1,.27.67,1.06,1.06,0,0,0,.21.55,16.77,16.77,0,0,0,2.89-.6c1-.31,2.07-.58,3.09-.8,0,.11.05.2,0,.24s-.05.12,0,.22a3.59,3.59,0,0,1,.61.36l.63.43a3.18,3.18,0,0,0,.63.33,1.13,1.13,0,0,0,.68,0,2.11,2.11,0,0,1,.33.61,1.24,1.24,0,0,1,0,.74l-1,1.08a10.54,10.54,0,0,1-1.1,1,7.3,7.3,0,0,1-1.28.81,5.6,5.6,0,0,1-1.59.49l-.28.05a.55.55,0,0,1-.27-.06,1.29,1.29,0,0,1-.82.27,1.37,1.37,0,0,0-.82.28,2.23,2.23,0,0,0-1,0,3,3,0,0,1-1.06.07,14.3,14.3,0,0,0-.75,1.89,14.89,14.89,0,0,0-.49,2.07,11.15,11.15,0,0,0,2.15-.27c.55-.13,1.07-.28,1.56-.44l1.5-.49a16,16,0,0,1,2-.45,5.18,5.18,0,0,1,1.67-.89,8.74,8.74,0,0,0,1.8-.8,1.2,1.2,0,0,1,.6.29l.54.44a3.77,3.77,0,0,0,.51.34.71.71,0,0,0,.59,0,.84.84,0,0,1,.28.31l.17.37a.81.81,0,0,0,.19.3.33.33,0,0,0,.34,0,5.84,5.84,0,0,1-.92,2.13,5,5,0,0,1-1.47,1.31,11.37,11.37,0,0,1-2,.93c-.73.28-1.54.59-2.43.95a1,1,0,0,1-.57.09,1.41,1.41,0,0,0-.54,0c-.55.24-1.21.48-2,.74a16,16,0,0,1-2.41.59,11.09,11.09,0,0,1-2.42.15,4,4,0,0,1-2-.63,1.24,1.24,0,0,1-.51-.53.83.83,0,0,0-.61-.44,11,11,0,0,0-.36-1.05c-.16-.39-.31-.79-.47-1.21s-.3-.83-.42-1.25a4.15,4.15,0,0,1-.18-1.16,2.59,2.59,0,0,1,.27-1.1,1.15,1.15,0,0,0,.06-1,.24.24,0,0,0,.18-.24c0-.12.09-.18.27-.19.07-.48.15-.93.24-1.37s.2-.85.32-1.26.22-.82.33-1.24.21-.89.29-1.39a3.27,3.27,0,0,1-1-.91,6.42,6.42,0,0,1-.59-1.09c-.15-.37-.29-.75-.42-1.15a8.73,8.73,0,0,0-.5-1.2,3.26,3.26,0,0,1,.73-1.09,5.38,5.38,0,0,1,1.07-.81,10.66,10.66,0,0,1,1.31-.64c.48-.2,1-.41,1.5-.65.94-.52,1.78-.94,2.53-1.27s1.5-.62,2.24-.88,1.5-.53,2.31-.79,1.71-.59,2.71-1a1,1,0,0,0,.71.21c0-.24.16-.33.31-.27s.2,0,.13-.24a3.65,3.65,0,0,0,1.16.87A6.08,6.08,0,0,0,265.52,308.27Z" transform="translate(-88.21 -272.29)" style="fill:#6953a3"/><path d="M273.63,324.43a21.75,21.75,0,0,1-.28,2.39,7.41,7.41,0,0,1-.65,1.77.84.84,0,0,0-.65.24,2.72,2.72,0,0,1-.34.42.78.78,0,0,1-.49.1,1.34,1.34,0,0,1-.3-.12,1.52,1.52,0,0,0-.31-.13,1.06,1.06,0,0,0-.53,0,5.24,5.24,0,0,0-.27-.53q-.15-.24-.54-.09a1.31,1.31,0,0,0-.07-.51,2.29,2.29,0,0,0-.16-.35,1.91,1.91,0,0,1-.16-.32.8.8,0,0,1-.05-.43c-.13,0-.24,0-.35-.2a5.32,5.32,0,0,0-.36-.47c0-.46,0-.9,0-1.31a10.9,10.9,0,0,1,.06-1.17c0-.37.07-.74.08-1.1a1.94,1.94,0,0,0-.33-1.06c.12.06.19,0,.21-.1a1.66,1.66,0,0,0,0-.47,5,5,0,0,0-.07-.56,2.64,2.64,0,0,0-.13-.46,16.58,16.58,0,0,0,.22-2.11c0-.72,0-1.43,0-2.12s0-1.38,0-2.06a10.26,10.26,0,0,1,.25-1.9,1.76,1.76,0,0,1,.93-.09,1,1,0,0,1,.71.31,8.45,8.45,0,0,0,1.36-2.15c.36-.8.74-1.59,1.13-2.37a11.78,11.78,0,0,1,1.38-2.13,4.58,4.58,0,0,1,2.23-1.4c.58.27,1.2.54,1.89.81a4.77,4.77,0,0,1,1.81,1.21,3.11,3.11,0,0,1,.57.21,4.68,4.68,0,0,0,.58.26l.08.44a3.57,3.57,0,0,1,.92.81,9.27,9.27,0,0,1,.73,1.05l.69,1.14a8.25,8.25,0,0,0,.76,1.07.75.75,0,0,0,0,.33.62.62,0,0,0,.11.27l.15.28a1.29,1.29,0,0,1,.08.41,4.14,4.14,0,0,1-.55,2.85,7.86,7.86,0,0,1-2,2.11,19,19,0,0,1-2.66,1.67,24.84,24.84,0,0,0-2.58,1.51c0,.1.07.14.16.13s.13,0,.13.16l1.6.61a8.9,8.9,0,0,0,1.1.37,7.14,7.14,0,0,0,1.08.19c.39,0,.92.07,1.6.09l1.58.06,1,0c.32,0,.63,0,.95,0s.77-.06,1.35-.13a3.39,3.39,0,0,1,1.24,1.56,4.2,4.2,0,0,1,.22.88,1.18,1.18,0,0,1-.13.74.14.14,0,0,0,.19.06.64.64,0,0,1,.28,0,1.32,1.32,0,0,0-.3.44l-.21.51a2.28,2.28,0,0,1-.26.46,1,1,0,0,1-.48.3,5.2,5.2,0,0,1-2.91.63,33,33,0,0,1-4.73-.55q-1.45-.25-2.37-.48a12.92,12.92,0,0,1-1.61-.5,8.56,8.56,0,0,1-1.29-.61Zm2.83-13.83a6.38,6.38,0,0,1-.7,1.26c-.27.39-.53.79-.78,1.18a8,8,0,0,0-.62,1.28,4.22,4.22,0,0,0-.24,1.54,10.8,10.8,0,0,0,2.59-1.26l2.47-1.63a3.3,3.3,0,0,0-1.17-1.7A3.26,3.26,0,0,0,276.46,310.6Z" transform="translate(-88.21 -272.29)" style="fill:#6953a3"/><path d="M305.84,300.33a1.7,1.7,0,0,1,.09.39,2.18,2.18,0,0,1,0,.25l0,.25a2,2,0,0,0,.15.37,4.35,4.35,0,0,1-1.47,2.09,8.86,8.86,0,0,1-2.09,1.11l-2.37.91a7.37,7.37,0,0,0-2.3,1.46,1.07,1.07,0,0,0-.87.17,2.25,2.25,0,0,1-1.12.34,1.21,1.21,0,0,1-.5.42c-.21.11-.43.22-.63.34a1.5,1.5,0,0,1,.26.66,1.15,1.15,0,0,0,.21.56,16,16,0,0,0,2.89-.61c1-.3,2.07-.57,3.09-.8,0,.12,0,.21,0,.25s0,.12,0,.21a3.11,3.11,0,0,1,.61.37l.64.43a2.44,2.44,0,0,0,.62.32,1.05,1.05,0,0,0,.68,0,2.24,2.24,0,0,1,.34.61,1.41,1.41,0,0,1,.05.74c-.35.35-.69.71-1,1.07a8.72,8.72,0,0,1-1.1,1,8,8,0,0,1-1.28.82,5.29,5.29,0,0,1-1.59.48l-.28.06a.55.55,0,0,1-.27-.06,1.27,1.27,0,0,1-.82.27,1.31,1.31,0,0,0-.82.28,2.23,2.23,0,0,0-1,0,3,3,0,0,1-1.05.07,13.08,13.08,0,0,0-.76,1.89,13.58,13.58,0,0,0-.48,2.07,13,13,0,0,0,2.14-.27c.55-.13,1.07-.28,1.56-.44l1.5-.49a13,13,0,0,1,2-.45,5,5,0,0,1,1.67-.89,9.31,9.31,0,0,0,1.8-.8,1.28,1.28,0,0,1,.61.29c.18.16.36.3.53.44a3.77,3.77,0,0,0,.51.34.75.75,0,0,0,.59,0,.84.84,0,0,1,.28.31c.06.13.12.25.17.37a.77.77,0,0,0,.19.29.29.29,0,0,0,.34,0,5.66,5.66,0,0,1-.92,2.14,5,5,0,0,1-1.47,1.31,11.37,11.37,0,0,1-2,.93c-.73.28-1.54.59-2.43.95a1,1,0,0,1-.57.09,1.41,1.41,0,0,0-.54,0c-.55.24-1.21.48-2,.74a16,16,0,0,1-2.41.59,11.09,11.09,0,0,1-2.42.15,3.89,3.89,0,0,1-2-.63,1.18,1.18,0,0,1-.52-.54.85.85,0,0,0-.61-.44q-.13-.47-.36-1.05c-.16-.38-.31-.78-.47-1.2s-.3-.84-.42-1.25a4.17,4.17,0,0,1-.18-1.17,2.45,2.45,0,0,1,.28-1.09,1.18,1.18,0,0,0,.05-1,.25.25,0,0,0,.18-.25c0-.11.1-.18.28-.19.06-.47.14-.92.23-1.36s.2-.85.32-1.26l.33-1.24a12.1,12.1,0,0,0,.29-1.39,3.27,3.27,0,0,1-1-.91,6.05,6.05,0,0,1-.58-1.09c-.15-.37-.3-.75-.43-1.15a8.73,8.73,0,0,0-.5-1.2,3.26,3.26,0,0,1,.73-1.09,5.38,5.38,0,0,1,1.07-.81,9.4,9.4,0,0,1,1.31-.64l1.5-.65c.94-.52,1.78-.94,2.53-1.27s1.5-.62,2.24-.88,1.51-.53,2.31-.79,1.71-.59,2.72-1a1,1,0,0,0,.7.21c.05-.24.16-.33.31-.27s.2,0,.13-.24a3.65,3.65,0,0,0,1.16.87A6.08,6.08,0,0,0,305.84,300.33Z" transform="translate(-88.21 -272.29)" style="fill:#6953a3"/><path d="M315.69,296.69a.23.23,0,0,1-.13.24.28.28,0,0,0-.16.24l-.09.55c0,.06,0,.1-.06.12a.72.72,0,0,0-.07.11,2.52,2.52,0,0,0-.12.49,7.25,7.25,0,0,1-.44,1.19,2.81,2.81,0,0,0-.3,1.16c-.29.37-.65.83-1.07,1.39a4.8,4.8,0,0,1-1.25,1.23l-1.16-.25a10.87,10.87,0,0,1-1.53-.47,4,4,0,0,1-1.17-.7.67.67,0,0,1-.1-.93,6.92,6.92,0,0,0,.84-1.93,16,16,0,0,0,.48-2.29,22.4,22.4,0,0,0,.22-2.48c0-.84,0-1.65,0-2.43a.31.31,0,0,0,.34,0,.85.85,0,0,0,.26-.24,2.56,2.56,0,0,0,.2-.37l.15-.34a3.6,3.6,0,0,0,.85.3c.4.1.81.19,1.24.27s.83.16,1.21.21a5.35,5.35,0,0,0,.79.08,2.86,2.86,0,0,1,.74,1.19,6.69,6.69,0,0,0,.43,1.17.86.86,0,0,0-.15.67,4.71,4.71,0,0,1,.05.62c0,.21,0,.33-.06.38a.57.57,0,0,0-.11.35.35.35,0,0,0,.06.22A.32.32,0,0,1,315.69,296.69Z" transform="translate(-88.21 -272.29)" style="fill:#6953a3"/><path d="M314,303.1a3.35,3.35,0,0,1,.57-1.51,6.57,6.57,0,0,1,1.09-1.2,9.15,9.15,0,0,1,1.31-.93c.46-.28.91-.52,1.33-.73.92-.62,1.9-1.23,3-1.84s2.15-1.18,3.28-1.71a21.23,21.23,0,0,1,3.53-1.29,11.24,11.24,0,0,1,4-.31,3.24,3.24,0,0,0,.48.64c.19.19.39.39.6.58s.39.38.56.56a1.79,1.79,0,0,1,.35.61,3,3,0,0,1,.74.61,1.45,1.45,0,0,1,.28,1c-.21.24-.42.47-.63.68a4.83,4.83,0,0,1-.68.58,9.16,9.16,0,0,0-2.85.33l-2.5.69a1.13,1.13,0,0,0-.87-.18,3.29,3.29,0,0,0-.95.34l-.95.5a2.26,2.26,0,0,1-.94.26,2,2,0,0,1-.84.57c-.35.13-.73.27-1.14.4,0,.13,0,.2.12.23s.11.1.09.23a1.21,1.21,0,0,0,.65.26l.79.08a3.33,3.33,0,0,1,.75.14.89.89,0,0,1,.52.46,1.75,1.75,0,0,1,1,.07,2.36,2.36,0,0,1,.8.5,2.93,2.93,0,0,1,.83,1.46c.11.18.22.25.31.21s.22,0,.37.08a2.31,2.31,0,0,0,.75.87,4.22,4.22,0,0,1,.93,1c.17.61.32,1.16.44,1.64a3.52,3.52,0,0,1,0,1.52,8.44,8.44,0,0,1-1.07,2.76,12.36,12.36,0,0,1-1.87,2.36,16.2,16.2,0,0,1-2.39,2c-.87.58-1.73,1.1-2.57,1.55a.51.51,0,0,0-.3.06c-.1,0-.13,0-.11-.17a1.53,1.53,0,0,1-.59.46,2.92,2.92,0,0,1-.76.21l-.85.11a2.84,2.84,0,0,0-.8.19,6.79,6.79,0,0,1-.56-.41,1.64,1.64,0,0,1-.44-.55c-.13,0-.19,0-.21-.15s-.06-.18-.16-.16a1.2,1.2,0,0,0,.12-.47.2.2,0,0,0-.13-.07.6.6,0,0,1-.19-.06.14.14,0,0,1-.07-.16,1.33,1.33,0,0,0,0-.71l-.24-.79a2.4,2.4,0,0,1-.09-.79.92.92,0,0,1,.42-.7,7.55,7.55,0,0,0,2.39-.57,11.23,11.23,0,0,0,2-1.11q.92-.64,1.74-1.35c.54-.47,1.08-.9,1.63-1.29a1.68,1.68,0,0,1,.2-.62,4.73,4.73,0,0,1,.35-.49,3.91,3.91,0,0,0,.34-.49,1.48,1.48,0,0,0,.15-.61c0-.18-.08-.28-.2-.3s-.19-.09-.22-.24l-.43,0a8.19,8.19,0,0,0-1.75-.37,10.59,10.59,0,0,1-1.65-.31,1,1,0,0,1-.75.26c-.25,0-.57,0-1-.05a24.45,24.45,0,0,1-2.5.23,9.11,9.11,0,0,1-2.39-.23,1.87,1.87,0,0,0-.26-.3c-.09-.08-.23-.08-.42,0l-.56-.49a3.85,3.85,0,0,1-.54-.53c0-.31,0-.57,0-.79a.85.85,0,0,0-.35-.57c0-.34.06-.61.07-.82A2.12,2.12,0,0,0,314,303.1Z" transform="translate(-88.21 -272.29)" style="fill:#6953a3"/><path d="M374.39,307.9l-.62.48a1.76,1.76,0,0,1-.7.29,4.59,4.59,0,0,1-2.26-3.46,24,24,0,0,1-.2-7,.49.49,0,0,0,.1-.48l-.41-.31a1.07,1.07,0,0,0-.27.09.37.37,0,0,0-.16.31c-.56.6-1.17,1.23-1.84,1.89a27.76,27.76,0,0,1-2.14,1.89,17.53,17.53,0,0,1-2.33,1.56,8.52,8.52,0,0,1-2.44.9,5.12,5.12,0,0,1-5.34-2.23l-.41-.5-.2.54a4.13,4.13,0,0,0-.22.68c-.09.34-.17.73-.24,1.15s-.12.86-.15,1.29a3.28,3.28,0,0,0,.07,1.08c-.18.27-.36.58-.55.93a3.31,3.31,0,0,0-.37,1.11.79.79,0,0,0,.19.55.91.91,0,0,1-.23.58c-.08.15-.16.28-.25.42a1.77,1.77,0,0,0-.21.41,1,1,0,0,0,0,.39c0,.13,0,.25,0,.38a1.42,1.42,0,0,1,0,.5,7.64,7.64,0,0,1-.67,1.89,1.35,1.35,0,0,1-.94.59,6.23,6.23,0,0,1-1,.08,5,5,0,0,1-1.16-1.26,10.11,10.11,0,0,1-1.58-3.9,4.72,4.72,0,0,1,0-1.91A6.22,6.22,0,0,1,348,306c.11-.51.24-1.16.41-2s.35-1.7.58-2.69.44-1.94.67-2.88.46-1.79.68-2.58A15.73,15.73,0,0,1,351,294c.14-.34.27-.65.38-.94s.21-.58.32-.86a15,15,0,0,1,.91-2.17,4.2,4.2,0,0,1,1.57-1.57,3.13,3.13,0,0,1,1.36.55l.15.39a.51.51,0,0,0,.52.29l.74.06a6,6,0,0,0,.64,0,3.6,3.6,0,0,1,.63.61l.75.76a4.76,4.76,0,0,1,.62.77,2.61,2.61,0,0,1,.36.84,2.38,2.38,0,0,1,0,1l.12.37a1.43,1.43,0,0,1,.25.91,5.52,5.52,0,0,0,.07.55,2.64,2.64,0,0,0,.2.6,2.07,2.07,0,0,0,1.3.28,2.14,2.14,0,0,0,1-.49,10.7,10.7,0,0,0,.85-.77,4,4,0,0,1,.52-.5,1.53,1.53,0,0,1,.56-.33q.54-.76,1-1.35c.3-.4.62-.8.95-1.2a26.57,26.57,0,0,0,1.79-2.36,7.89,7.89,0,0,0,1.17-2.94,1.69,1.69,0,0,1,.74-.38,2.5,2.5,0,0,1,.9,0l.93.2.23.08.18,0a.81.81,0,0,0,.42.57l.22.11.13.06a1.63,1.63,0,0,1,.83.45,2.31,2.31,0,0,0,1.19,1.12,1.45,1.45,0,0,0,.15.68,6,6,0,0,0,.38.61,2.12,2.12,0,0,0,.11.21,1.5,1.5,0,0,0,.17.23l-.73.07.25.69a2.86,2.86,0,0,1,.14,1.17,4.08,4.08,0,0,1-.2,1.08c.15.64.27,1.14.35,1.5a4.66,4.66,0,0,1,.15,1,5.52,5.52,0,0,1,0,.92,6.63,6.63,0,0,1-.18,1,11,11,0,0,1,.32,4.44c-.21,1.4-.45,2.71-.72,3.95,0,.14-.06.27-.1.41a3.24,3.24,0,0,0-.09.4,3.5,3.5,0,0,0-.55.37Z" transform="translate(-88.21 -272.29)" style="fill:#6953a3"/><path d="M399.44,292.07a2.41,2.41,0,0,0,.25.84,5.48,5.48,0,0,0,.43.74c.17.24.32.49.48.74a5.1,5.1,0,0,1,.38.78,4.19,4.19,0,0,1,.23,1.13,6.41,6.41,0,0,1,0,1.24,4.53,4.53,0,0,1-.28,1.14,2,2,0,0,1-.58.83,3.61,3.61,0,0,1-1.06,1.29,7.89,7.89,0,0,0-1.21,1.17,2.84,2.84,0,0,1-.84.55l-1,.43c-.24.2-.54.42-.88.65s-.7.46-1.07.68a7.34,7.34,0,0,1-1.14.53,4.93,4.93,0,0,1-1,.27,10.29,10.29,0,0,1-2.09,1,8.09,8.09,0,0,1-2.52.32,6.46,6.46,0,0,1-2.51.38,5.9,5.9,0,0,1-2.2-.56,6.7,6.7,0,0,1-1.84-1.26,9.68,9.68,0,0,1-1.45-1.7,10,10,0,0,1-.61-3.89,13.87,13.87,0,0,1,.66-3.45,18.43,18.43,0,0,1,1.39-3.1q.84-1.46,1.62-2.85a.39.39,0,0,0,.35-.09.91.91,0,0,0,.19-.3c.05-.13.12-.25.18-.37a.57.57,0,0,1,.28-.25,2,2,0,0,1,.61-1,2.07,2.07,0,0,0,.64-1,1.55,1.55,0,0,0,.52-.33,3.62,3.62,0,0,0,.36-.42l.36-.44a1.54,1.54,0,0,1,.48-.34l-.08-.41a2.61,2.61,0,0,0,.85-.89c.17-.3.36-.67.59-1.1l.53-.14a3.43,3.43,0,0,0,.6-.2,4.18,4.18,0,0,1,.39-.88,3.62,3.62,0,0,1,.62-.71,3.29,3.29,0,0,0,1.05.11,1.68,1.68,0,0,1,1.05.29,1,1,0,0,0,.34.54,3.82,3.82,0,0,0,.48.29l.5.26a1,1,0,0,1,.38.47c.11,0,.18,0,.2-.08a.2.2,0,0,1,.2-.07,1.73,1.73,0,0,0,.4.63,2,2,0,0,1,.43.6,3.26,3.26,0,0,0-.13.81.83.83,0,0,1-.36.67c0,.18.08.26.21.25a.24.24,0,0,1,.26.16.58.58,0,0,1,0,.51,26.14,26.14,0,0,1,2.22,2.75A24.07,24.07,0,0,0,399.44,292.07Zm-4,4.45a2,2,0,0,1,.26-.74,1.3,1.3,0,0,0,.13-.84,1.78,1.78,0,0,1-.32-.42,4.13,4.13,0,0,1-.14-.53,14.93,14.93,0,0,1-1.91-2.2,19,19,0,0,0-1.83-2.21.88.88,0,0,1-.21.35c-.1.12-.24.13-.42,0a.7.7,0,0,1-.18.48.66.66,0,0,1-.39.19,1.64,1.64,0,0,1-.49,0,1.6,1.6,0,0,1-.48-.16c-.61.72-1.22,1.42-1.84,2.1a11.06,11.06,0,0,0-1.57,2.29c-.09.07-.15.1-.17.09s-.1,0-.22.1a6,6,0,0,1-.47,1.43c-.21.44-.42.88-.61,1.34a7.41,7.41,0,0,0-.46,1.4,4,4,0,0,0,0,1.63,3,3,0,0,0,1.62.34,8,8,0,0,0,1.78-.32,15,15,0,0,0,1.75-.59,8.66,8.66,0,0,1,1.59-.49,11.11,11.11,0,0,0,2.5-1.51C394,297.68,394.72,297.11,395.46,296.52Z" transform="translate(-88.21 -272.29)" style="fill:#6953a3"/><path d="M409.18,297.73a19.15,19.15,0,0,1-.29,2.39,6.94,6.94,0,0,1-.64,1.77.81.81,0,0,0-.65.25,2.64,2.64,0,0,1-.34.41.78.78,0,0,1-.49.1,1.34,1.34,0,0,1-.3-.12,2.42,2.42,0,0,0-.31-.13,1,1,0,0,0-.52,0c-.09-.19-.19-.37-.28-.53s-.28-.19-.55-.08a1,1,0,0,0-.06-.51,3,3,0,0,0-.16-.36,2.29,2.29,0,0,1-.16-.31.85.85,0,0,1-.05-.44c-.13,0-.24,0-.35-.2a4,4,0,0,0-.37-.47c0-.46,0-.9,0-1.31a10.9,10.9,0,0,1,.06-1.17c0-.37.07-.74.08-1.1a2,2,0,0,0-.33-1.06c.12.06.19,0,.22-.1a2.18,2.18,0,0,0,0-.47,5,5,0,0,0-.07-.56,2.64,2.64,0,0,0-.13-.46,16.4,16.4,0,0,0,.22-2.11c0-.72.05-1.42.05-2.12s0-1.38,0-2.06a10.26,10.26,0,0,1,.25-1.9A2,2,0,0,1,405,285a1,1,0,0,1,.71.31,8.45,8.45,0,0,0,1.36-2.15c.36-.8.74-1.59,1.13-2.36a11.12,11.12,0,0,1,1.38-2.13,4.52,4.52,0,0,1,2.23-1.41c.58.28,1.21.54,1.89.81a4.89,4.89,0,0,1,1.81,1.21,3.11,3.11,0,0,1,.57.21,4.68,4.68,0,0,0,.58.26l.08.45a3.36,3.36,0,0,1,.92.8,8.58,8.58,0,0,1,.73,1.06l.69,1.13a8.25,8.25,0,0,0,.76,1.07.79.79,0,0,0,0,.34.63.63,0,0,0,.11.26l.15.28a1.29,1.29,0,0,1,.08.41,4.14,4.14,0,0,1-.55,2.85,7.86,7.86,0,0,1-2,2.11,18.16,18.16,0,0,1-2.66,1.67,24.84,24.84,0,0,0-2.58,1.51c0,.1.07.14.16.13s.13,0,.13.16l1.6.62a10.76,10.76,0,0,0,1.1.36,7.14,7.14,0,0,0,1.08.19c.39,0,.92.07,1.6.09l1.58.06,1,0c.32,0,.63,0,.95,0l1.35-.14a3.2,3.2,0,0,1,.74.69,3,3,0,0,1,.5.87,4.28,4.28,0,0,1,.22.89,1.19,1.19,0,0,1-.13.74.14.14,0,0,0,.19,0,.83.83,0,0,1,.28,0,1.43,1.43,0,0,0-.3.44l-.21.51a2.28,2.28,0,0,1-.26.46.89.89,0,0,1-.48.3,5.2,5.2,0,0,1-2.91.64,33.29,33.29,0,0,1-4.73-.56q-1.45-.26-2.37-.48a12.92,12.92,0,0,1-1.61-.5,7.69,7.69,0,0,1-1.29-.61ZM412,283.91a7,7,0,0,1-.7,1.26q-.4.58-.78,1.17a7.68,7.68,0,0,0-.62,1.29,4.17,4.17,0,0,0-.24,1.53,10.8,10.8,0,0,0,2.59-1.26l2.47-1.63a3.3,3.3,0,0,0-1.17-1.7A3.15,3.15,0,0,0,412,283.91Z" transform="translate(-88.21 -272.29)" style="fill:#6953a3"/><path d="M441.39,273.64a1.24,1.24,0,0,1,.09.38,2.18,2.18,0,0,1,0,.25,2.42,2.42,0,0,0,0,.25,2,2,0,0,0,.15.37A4.24,4.24,0,0,1,440.2,277a8.86,8.86,0,0,1-2.09,1.11l-2.37.91a7.33,7.33,0,0,0-2.29,1.46,1.15,1.15,0,0,0-.89.17,2.17,2.17,0,0,1-1.11.34,1.32,1.32,0,0,1-.5.43l-.63.33a1.54,1.54,0,0,1,.26.67,1.15,1.15,0,0,0,.21.55,16.58,16.58,0,0,0,2.89-.6q1.56-.47,3.09-.81c.05.12.05.21,0,.25s0,.12,0,.22a3.59,3.59,0,0,1,.61.36c.22.15.43.3.64.43a2.86,2.86,0,0,0,.62.33,1.13,1.13,0,0,0,.68,0,2.4,2.4,0,0,1,.34.61,1.32,1.32,0,0,1,0,.74l-1,1.08a10.54,10.54,0,0,1-1.1,1,7.3,7.3,0,0,1-1.28.81,5.6,5.6,0,0,1-1.59.49l-.28.05a.55.55,0,0,1-.27-.06,1.32,1.32,0,0,1-.82.28,1.31,1.31,0,0,0-.82.27,2.23,2.23,0,0,0-1,0,3,3,0,0,1-1.05.07,13.08,13.08,0,0,0-.76,1.89,13.58,13.58,0,0,0-.48,2.07,11.14,11.14,0,0,0,2.14-.27c.55-.13,1.07-.28,1.56-.44l1.5-.49a16,16,0,0,1,2-.45,5.18,5.18,0,0,1,1.67-.89,8.74,8.74,0,0,0,1.8-.8,1.28,1.28,0,0,1,.61.29c.18.16.36.3.53.44a3.77,3.77,0,0,0,.51.34.71.71,0,0,0,.59,0,.84.84,0,0,1,.28.31l.17.37a.91.91,0,0,0,.19.3.33.33,0,0,0,.34,0,5.68,5.68,0,0,1-.92,2.13,5,5,0,0,1-1.47,1.31,11.37,11.37,0,0,1-2,.93c-.73.28-1.54.59-2.43.95a1,1,0,0,1-.57.09,1.41,1.41,0,0,0-.54,0c-.55.24-1.21.48-2,.74a16,16,0,0,1-2.41.59,11.09,11.09,0,0,1-2.42.15,3.89,3.89,0,0,1-2-.63,1.21,1.21,0,0,1-.52-.53.83.83,0,0,0-.61-.44,11,11,0,0,0-.36-1.05c-.16-.39-.31-.79-.47-1.21s-.3-.83-.42-1.25a4.15,4.15,0,0,1-.18-1.16,2.46,2.46,0,0,1,.28-1.1,1.18,1.18,0,0,0,0-1,.24.24,0,0,0,.18-.24c0-.12.1-.18.28-.19.06-.48.14-.93.23-1.36s.2-.86.32-1.27.22-.82.33-1.24a12.1,12.1,0,0,0,.29-1.39,3.27,3.27,0,0,1-1-.91,5.73,5.73,0,0,1-.58-1.09c-.15-.37-.29-.75-.43-1.15a8.13,8.13,0,0,0-.5-1.19,3.21,3.21,0,0,1,.73-1.1,5.79,5.79,0,0,1,1.07-.81,10.66,10.66,0,0,1,1.31-.64c.48-.2,1-.41,1.5-.65.94-.52,1.78-.94,2.53-1.27s1.5-.62,2.24-.88,1.51-.53,2.31-.79,1.71-.59,2.72-1a1,1,0,0,0,.7.21c0-.24.16-.33.31-.27s.2,0,.13-.24a3.65,3.65,0,0,0,1.16.87A6.58,6.58,0,0,0,441.39,273.64Z" transform="translate(-88.21 -272.29)" style="fill:#6953a3"/><path d="M478,583.48c-.12.06.21.33.25.39C478.35,583.65,477.93,583.4,478,583.48Z" transform="translate(-88.21 -272.29)" style="fill:#6953a3"/><polygon points="390.7 308.94 390.79 309.09 390.73 308.56 390.7 308.94" style="fill:#6953a3"/><path d="M480.38,579.77c-.64-.36-.45.62-.89.7l-.16-.07.29.52C479.87,580.54,480,579.85,480.38,579.77Z" transform="translate(-88.21 -272.29)" style="fill:#6953a3"/><path d="M482.25,580.08c-.24-.15,0-.34-.24.12l.08,0A.82.82,0,0,1,482.25,580.08Z" transform="translate(-88.21 -272.29)" style="fill:#6953a3"/><path d="M482.09,580.22c-.14.17.27.06,0,0Z" transform="translate(-88.21 -272.29)" style="fill:#6953a3"/><path d="M482.69,579.39l0,.38c.15.07.36-.08.38.07C483.16,579.54,483,579.46,482.69,579.39Z" transform="translate(-88.21 -272.29)" style="fill:#6953a3"/><path d="M482.52,578.83l0,.18C482.55,579,482.6,579,482.52,578.83Z" transform="translate(-88.21 -272.29)" style="fill:#6953a3"/><path d="M482.42,579.39l.07-.38c-.11,0-.28-.21-.05.16C482.31,579,482.41,579.19,482.42,579.39Z" transform="translate(-88.21 -272.29)" style="fill:#6953a3"/><path d="M482.22,579.44c-.23,0-.44.08-.41-.3C481.49,579.6,481.9,579.9,482.22,579.44Z" transform="translate(-88.21 -272.29)" style="fill:#6953a3"/><path d="M479.93,579.17h-.3l0,.3C479.65,579.33,480.1,579.32,479.93,579.17Z" transform="translate(-88.21 -272.29)" style="fill:#6953a3"/><path d="M484.22,578.39c-.09-.12-.35-.22-.5-.34l0,.27C483.84,578.32,484.05,578.24,484.22,578.39Z" transform="translate(-88.21 -272.29)" style="fill:#6953a3"/><path d="M483.72,578.05l0-.41C483.53,577.82,483.59,577.94,483.72,578.05Z" transform="translate(-88.21 -272.29)" style="fill:#6953a3"/><polygon points="393.78 305.94 393.8 306.7 393.85 305.87 393.78 305.94" style="fill:#6953a3"/><polygon points="396.89 305.25 397.01 305.63 396.86 305.02 396.89 305.25" style="fill:#6953a3"/><path d="M485.62,576.93c.11.3.48.22.51.44a1.27,1.27,0,0,0,0-.78C486.12,576.81,486,576.92,485.62,576.93Z" transform="translate(-88.21 -272.29)" style="fill:#6953a3"/><path d="M486.13,576.16a2.33,2.33,0,0,0,0,.43A1,1,0,0,0,486.13,576.16Z" transform="translate(-88.21 -272.29)" style="fill:#6953a3"/><path d="M484.19,577.31a.75.75,0,0,0,.49.13l-.39-.22Z" transform="translate(-88.21 -272.29)" style="fill:#6953a3"/><path d="M484.27,577.22h0l.2-.17Z" transform="translate(-88.21 -272.29)" style="fill:#6953a3"/><path d="M484.17,577.33l0,0S484.14,577.28,484.17,577.33Z" transform="translate(-88.21 -272.29)" style="fill:#6953a3"/><path d="M482.86,577.92c0-.3.06-.76-.47-.75C482.5,577.47,482.8,577.47,482.86,577.92Z" transform="translate(-88.21 -272.29)" style="fill:#6953a3"/><path d="M483.68,577.06l-.31.17c.09.07.25.15.27.3Z" transform="translate(-88.21 -272.29)" style="fill:#6953a3"/><polygon points="395.49 304.56 395.47 304.77 395.59 304.7 395.49 304.56" style="fill:#6953a3"/><path d="M485.44,576.29a.63.63,0,0,1,.18-.51,1.64,1.64,0,0,0-.51.32C485.19,576.22,485.3,576.45,485.44,576.29Z" transform="translate(-88.21 -272.29)" style="fill:#6953a3"/><path d="M484.85,576.71v0S484.79,576.66,484.85,576.71Z" transform="translate(-88.21 -272.29)" style="fill:#6953a3"/><path d="M486.88,574.53l-.08,0,.05.06Z" transform="translate(-88.21 -272.29)" style="fill:#6953a3"/><path d="M485,576.07c-.17,0-.15.18-.12.33a1.17,1.17,0,0,1,.19-.3C485.08,576.05,485.05,576,485,576.07Z" transform="translate(-88.21 -272.29)" style="fill:#6953a3"/><path d="M486.34,575.67a2,2,0,0,0-.35,0C486.14,575.73,486.4,575.77,486.34,575.67Z" transform="translate(-88.21 -272.29)" style="fill:#6953a3"/><path d="M485,576.72v0C485.07,576.78,485,576.75,485,576.72Z" transform="translate(-88.21 -272.29)" style="fill:#6953a3"/><path d="M485,576.72a.93.93,0,0,0-.05-.32.9.9,0,0,0-.07.27Z" transform="translate(-88.21 -272.29)" style="fill:#6953a3"/><path d="M485.32,572.21c.26.3.25.82-.29.76,0,.44,1.05,1.21,1.77,1.52a.6.6,0,0,1-.16-.64c-.23-.07-.88.17-.93-.29.17-.45.35-.15.65-.16-.48-.22-.11-.9-.69-1.35l-.09.46C485.49,572.43,485.46,572.2,485.32,572.21Z" transform="translate(-88.21 -272.29)" style="fill:#6953a3"/><path d="M486.32,574.91l-.06.14a1.28,1.28,0,0,1,.71,0,.67.67,0,0,0-.12-.54l-.52.44Z" transform="translate(-88.21 -272.29)" style="fill:#6953a3"/><path d="M485.82,575.48c-.23-.38-.12-.74-.59-.93-.27.31,0,.46,0,.76.39-.54,0,.3.55.14a1.13,1.13,0,0,1-.17.33,2.24,2.24,0,0,1,.37-.1h0c-.06,0-.09,0,0,0a0,0,0,0,1,0,0,.51.51,0,0,1-.09-.13c.19-.08.1,0,.09.13l0,0h0l.3-.62C486.12,575.1,486,575.23,485.82,575.48Z" transform="translate(-88.21 -272.29)" style="fill:#6953a3"/><path d="M482,576.27a.26.26,0,0,1,.09.05C482.06,576.26,482.05,576.22,482,576.27Z" transform="translate(-88.21 -272.29)" style="fill:#6953a3"/><path d="M482.36,576.26c0,.08.1.23,0,.31s-.15-.15-.25-.25c0,.15,0,.45.34.39v-.07a1.42,1.42,0,0,1,.92.14A4.42,4.42,0,0,0,482.36,576.26Z" transform="translate(-88.21 -272.29)" style="fill:#6953a3"/><path d="M484,575.78l.23-.53-.46-.07.17.15C483.69,575.49,483.93,575.63,484,575.78Z" transform="translate(-88.21 -272.29)" style="fill:#6953a3"/><polygon points="398.86 302.34 399.13 302.72 398.9 302.04 398.86 302.34" style="fill:#6953a3"/><polygon points="399.32 301.81 399.58 302.11 399.54 301.81 399.32 301.81" style="fill:#6953a3"/><path d="M501.62,545.84l-.19,0A.46.46,0,0,0,501.62,545.84Z" transform="translate(-88.21 -272.29)" style="fill:#6953a3"/><path d="M502.42,546.67l.15-.12C502.46,546.59,502.39,546.63,502.42,546.67Z" transform="translate(-88.21 -272.29)" style="fill:#6953a3"/><path d="M499.75,561.82c.43.09,1,.31.68,0l-.36-.26A.34.34,0,0,1,499.75,561.82Z" transform="translate(-88.21 -272.29)" style="fill:#6953a3"/><path d="M506.3,551.61l-.16,0a3.61,3.61,0,0,1,.23.36Z" transform="translate(-88.21 -272.29)" style="fill:#6953a3"/><path d="M504.85,550.52l.36,0A2.11,2.11,0,0,0,504.85,550.52Z" transform="translate(-88.21 -272.29)" style="fill:#6953a3"/><path d="M496.83,541.7l-.44.18C496.6,542.09,496.66,541.84,496.83,541.7Z" transform="translate(-88.21 -272.29)" style="fill:#6953a3"/><path d="M492.53,568.88a1.18,1.18,0,0,0,.54-.17C492.72,568.7,492.32,568.58,492.53,568.88Z" transform="translate(-88.21 -272.29)" style="fill:#6953a3"/><path d="M505.19,542.9a.33.33,0,0,0-.28.09A.25.25,0,0,0,505.19,542.9Z" transform="translate(-88.21 -272.29)" style="fill:#6953a3"/><path d="M493.47,568.3h-.14a.9.9,0,0,1-.26.41C493.32,568.71,493.55,568.65,493.47,568.3Z" transform="translate(-88.21 -272.29)" style="fill:#6953a3"/><path d="M480.91,525.27s0,0,0-.07S480.88,525.26,480.91,525.27Z" transform="translate(-88.21 -272.29)" style="fill:#6953a3"/><path d="M479.3,517.46a1.42,1.42,0,0,1,.21.17S479.44,517.52,479.3,517.46Z" transform="translate(-88.21 -272.29)" style="fill:#6953a3"/><path d="M489.67,572.22c-.08.13,0,.06,0,0Z" transform="translate(-88.21 -272.29)" style="fill:#6953a3"/><path d="M487.94,571.53a.37.37,0,0,0-.1-.2A.6.6,0,0,1,487.94,571.53Z" transform="translate(-88.21 -272.29)" style="fill:#6953a3"/><path d="M492.62,565.33h0C492.54,565.3,492.55,565.3,492.62,565.33Z" transform="translate(-88.21 -272.29)" style="fill:#6953a3"/><path d="M489.37,572.24a.59.59,0,0,0,.23,0A.91.91,0,0,0,489.37,572.24Z" transform="translate(-88.21 -272.29)" style="fill:#6953a3"/><path d="M489.54,572.37l-.12.06C489.46,572.5,489.5,572.52,489.54,572.37Z" transform="translate(-88.21 -272.29)" style="fill:#6953a3"/><path d="M489.8,572.06a.41.41,0,0,1-.2.14s.07,0,.07,0Z" transform="translate(-88.21 -272.29)" style="fill:#6953a3"/><path d="M490.4,533.12a.09.09,0,0,1,0,0C490.17,533.09,490.24,533.11,490.4,533.12Z" transform="translate(-88.21 -272.29)" style="fill:#6953a3"/><path d="M499.32,555.88v0h0Z" transform="translate(-88.21 -272.29)" style="fill:#6953a3"/><path d="M499.47,555.27c.22.54.08.59-.12.63l1,.76Z" transform="translate(-88.21 -272.29)" style="fill:#6953a3"/><path d="M499.57,544v.54c-.78.13-.86-.26-1,.38,1-.92,1.13.94,2.13,0l0,.38c0-.06-.1,0-.14-.07-.12.8.94-.45,1.25.13.08.23,0,.48-.17.49l.58.1c.08.12-.11.26-.19.14l.6.45,0,0a4.53,4.53,0,0,1,.81-.15c0,.27-.17,0-.25.19l.52,0a.46.46,0,0,1-.78.13c-.69,1.23.48,0,.51,1.15l-.4-.16c-.37.73,0,.74,0,1.39.11-.25.24-1.47.79-1.4,0,.16.1.31.46.29-.17.17-.19.28-.14.36s.08.07.14.11l-.49.41c.19-.07.45-.26.75-.38.05.15-.39.41-.77.61,0,.06.17,0,.37-.15s.41-.27.57-.2c-.12.23.2.18.88.32-.17.14-.51,0-.7.11.24,0,.49,0,.74,0a1.27,1.27,0,0,1-.31,0,5,5,0,0,1,1.25.1c.22,0,.3,0,.29.06a7.05,7.05,0,0,1-.86.2c-.3.07-.45.12-.15.26-.26,0-.45-.11-.76-.14a2.45,2.45,0,0,1,.35.32c.08.09.2.17.43.44-.22,0-.42,0-.62,0a1.27,1.27,0,0,1,1.09,1.07,3.21,3.21,0,0,0,.67.07c-.05.22-.12.45-.2.69-.15,0-.26-.2-.4-.43l0,.17c-.35,0-.53-.32-.73-.64l.46.11a2.62,2.62,0,0,0-.87-.82.27.27,0,0,1,.05.19.72.72,0,0,0-.2-.17c-.06,0,0,.07.12.22-.22-.12-.43-.25-.63-.38l.21.19h-.31a3.89,3.89,0,0,0-.43.11c.11.9.51,2,.08,2.84-.21-.53-.57-.64-1-1.09.63.29.29-.68.71-.92-.22.13-.39-.12-.42-.24l-.16,1c-.35-.37-.4-.15-.7-.14.83.59,0,.91,0,1.36-.25-.22-.44-.52-.09-.76-.85-.21.42,1.25-.35,1.11.06-.08.14-.08.05-.23,0,.38-.53.62-.64.31l.06-.07c-.55.39-1.43,1.42-.9,2.1-.08-.08-.66-.79-.76-.94l1.19,2.86c-.44-.59-2-1.54-1.86-2.22a.5.5,0,0,0-.46.51c.15,0,.93.56.88.71a4.39,4.39,0,0,0-1.35-.25c.22,0,.91.94.7,1.09-.09-.15-.82-.78-.83-.93l.34,1.24c0-.25-.65-.69-1-.82.2.11-.4.38-.44.58h.37c-.63.39.62,1.62.07,2.08-.1-.22-.86-1.16-1.21-1,.29.52,1.44,2.48,1.3,3.24l-.31-.15-.08.61a23.18,23.18,0,0,1-1.27-3.54c-.37,0-.33-.23-.59.08-.32-.12-.18-.49-.1-.58l-.81.52c.51.44,0,1,.39,1.35l.23-1.21c.5.45.93,1.77.38,2.15-.31-.07-.76-.93-.93-1.08.11.22-.13.76-.29.68l-.05-.45c-.44.08.2,1.06-.57.92-.14.07-.93-.29-.67,0a11.28,11.28,0,0,1,2.72,2.53,6,6,0,0,1-1.48-.09c-.6-.25-.74-1.28-1.26-1.5a1.09,1.09,0,0,1,.19.49c-.22,0-.35-.45-.54-.14.44.52-.54.46.29.52-.1.38-.36.16-.62.47a2.19,2.19,0,0,1,.7,1.69,1.45,1.45,0,0,0-.42-.29c-.54.46-1,.5-1.49,1-.16-.07-.53,0-.64-.29,0,.15.12.37,0,.53-.69-.14.25-.38-.46-.67.26.29,0,.75,0,1.13.5.37.55-.39.58-.77a2.55,2.55,0,0,1,.66,2.34c-.23.53-.55-.22-.53-.07-.83.62.43,1.66-.6,1.83-.62-.15-.77-.75-1.1-1,.17-.46.72-.24.92-.47l-.44.08c0-.22.09-.53.31-.53-.54-.14-1.29,1.15-2.16,1.4,0,.22,0,.52.23.6l.12-.23c.47.14.09.75.46.67,0,.46.05,1.06-.46,1.22l-.49-.37c.13.12.47,0,.44-.19.05.33-1.1-.07-.69.65l.54.06c0,.46.14,1.21-.29,1.37.57.29,0-.12.73.17-.8-.44.78-.72-.16-1.09.79.37.62-.12,1.39.09-.15-.13-.37-.17-.05-.35a.67.67,0,0,1-.07-.18h0s0,0,0,0a.67.67,0,0,1-.34-.09c-.21-.45.2-.84.16-1.14.21-.08.1.23.34.3l-.06-.45c.34.29.92.13.76.67l.32-.3c.37,0,.69-.19.71-.48.22-.08,0-.72.14-.34l.29-.69.09.08c.52-.45.46-1.52,1.59-1.5a1,1,0,0,1,.51-.69l.33.22c.11-.3.9-.35.7-.72,1,.51,1.17-.85,1.67-1.09l-.34-.37a2.39,2.39,0,0,0,.58-1l-.34-.29c0-.53.92-.47,1.32-.93.09.15-.05.23-.2.23,1.23.21.55-1.6,1.54-1.54,0-.23.12-.27.28-.28a.09.09,0,0,0,0,.05l.05,0h.33a.91.91,0,0,0-.3,0,1.43,1.43,0,0,0,.23-.48l.39.28a.05.05,0,0,0,0,0c.26,0,0-.26-.38-.45a1,1,0,0,0,0-.38c.66.44.16-.53.89-.09-.19-.37.45-.88-.08-1.55.08.07.16.07.09.15.22-.08.44-.16.4-.46l.49.37-.26-.91c.46.07.7.15.84.67-.05-1,.18-.57.07-1.48l.26.3c.14-.15,0-.75.31-.61.85.22,1.65-1.5,3-1.83-1-.66.75,0,.14-.68.25.15.47.15.51.45.22-.61.93-.32.68-1.15.25.15.2.38.36.45,0-.07,0-.3.12-.23s.1.23.12.38a.51.51,0,0,0,.13-.38,1.22,1.22,0,0,0-.07-.48,2.75,2.75,0,0,0-.69-.9c.57,0,.71-.26.44-.73.32,0,.76,0,.47.42.22-.16,1.71-1.17,1-1.38.24,0,.34-.27.3-.34a6.66,6.66,0,0,0,1-.92l-.26.11c-.6-.16-.32-.26,0-.44a.39.39,0,0,0-.19-.26h.12a.57.57,0,0,0-.36-.58c-.16-.08-.28-.13-.32-.62l-.5.18c-.63.1-.59-.08-.55-.37s.07-.7-.35-.83a2.47,2.47,0,0,1-.1.29c-.28,0-.1-.35.07-.77s.33-.91.22-1.11.22,0,.37.07c-.18-.61-.34-.55-.52-.37s-.46.38-.7.25c.17-.31.7-.53.49-.82.07-.32-1.5.05-1.39-.75-.1.26-.21.52-.53.48-.33-.19,0-1.41-.83-1.07a.38.38,0,0,1,.09-.19c-.35,0-.91-.41-1.34-.21,1-1.36-1.83-.69-.75-1.77l-.68-.56.13-.1c-.33-.47-.73-.35-1.13-.23,0-.17.15-.2.22-.25-.37-.8-.47-.81-1.5-.76l.3-.4c-.33.07-.29-1.39-1.27-1.55a.45.45,0,0,1,.22-.1c-1.05-.23-.56-2.51-2.07-1.46l-.74-.11c.45.64-.64.47-.62.91-.29-.14-.18-.95.15-.75l0,.11c.76-.57-.44-.92,0-1.36-1.11-1-1.79-2.46-2.77-3.5l-.4.63-.32-.38c0-.21.28-.53.51-.25.16-.43-.67-.18-.79-.07-.28-.71.8-.42.66-.58l-.25-.17v.11c-.38,0-.62.26-.89-.07-.09-.3.22-.42.16-.51s0-.08-.1-.13l-.4-.49-.23.58c-.4,0-.4-.44-.65.23.41-1-1.4-1.91-1.37-2.32a1.26,1.26,0,0,1-1.14-.62c0,.16-.41.67-.64.33,1.05-.84-.12-1,.32-1.86-.24.66-.93-.72-1.25.25-.16-.32.34-.37.38-.77-.94-.21-1-1.51-1.87-2.1-.13.11-.2.42-.54.45l.24-1c-.2-.08-.85.59-.67-.1-.07.14-.17.36-.31.3-.79-2-3.35-2.36-3.63-4.92-.05.44-.2.33-.36.19,0,.16-.31.31-.46.5l-.12-1.07c-.58.36-.67-.6-1.18-.22l.27.11c-.78.28-.82,1.53-1.54,2.17.88-.32-.15,1.62,1.17,1.22,0,.24-.3.14-.41.35.41-.18.61-.1.74.3l-.1,0c.8.66.83,1.26,1.46,2.27l.28-.39c.13.22.06.36.06.53.71-.31-.47-.53.28-.9-.45.91,1.24,1.26.62,2.19.27.27.31-.47.58-.19l-.14.28.34-.2c.13.22,0,.57-.21.76,0-.07-.18-.08-.24-.11,0,.48.74.57.74.73l-.13-.39c.93.55,1.57,1.73,2.71,2l.1-.21c.84.25.27.61,1,1.08h-.06a.7.7,0,0,1,.66.23c-.34,0-.07.64-.48.65.91.28.54.05,1.52-.15l-.17.35c.37-.1.51-.21.88,0-.47,0-.21.59-.78.61,0,1.21,1.51.36,1,1.49,1-.44-.14-1,.18-.94.1-.38.78-.31.9,0s-.58,1.27-.06,1.77c-.05-.06-.11,0-.16-.06,0,.38.63.12.56.65.57-.3.27.33.87-.19l-.59-.34c.41.12,1.31-.29,1.43.47a1.71,1.71,0,0,1-.6.09c0,.29.35.13.32.43-.6.53-.69-.44-1.4-.29-.1.37.94.12.19.59,1-.57.4.6,1.34.35l-.36.31c.1,0,.37,0,.47.07l-.62.25c.65-.09.21.86.68.92-.57-.54.28-.52.29-1,1.13.24-.48,1.28.45,1.89-.15-.06-.19-.6.13-.59a1.38,1.38,0,0,1,.05.81c.58.44.27-.43.69-.42-.23.59.42.09.77.18l-.34.34c.37.8.87-.55,1.13.23l-.7.26.4.15-.45.33c.59,0,.61.17.79.57.17-.3.66-.58.92-.33,0,.38-.42.23,0,.54-.3.13-.66.31-.5-.16-.13.09-.3.13-.42.22-.05.43.42.53.55.66a.29.29,0,0,1-.06-.22l1,.06c0,.21-.21.24-.38.28.15.07.38,0,.56.11-.31.24-.59.54-.94.44l.81.2c-.09.16-.07.59-.24.63.11.44,1.22.15,1.38.73a.37.37,0,0,1,.28,0c.28.41.25,1.06,1.05,1.1l-.27.73c.44.21.31-1,1-.6.54.23-.28.57-.29.84.44-.06,1.28-.24,1.23.52C499.74,544.2,499.72,544,499.57,544Zm4.21,3.77c-.15,0-.52.06-.38-.2C503.88,547.24,503.76,547.49,503.78,547.74Zm1.29,3.78c-.05-.18.06-.17.27-.13C505.31,551.48,505.25,551.51,505.07,551.52Zm-14.52,19.27v0C490.85,570.72,490.74,570.73,490.55,570.79Zm-.5.21a.2.2,0,0,0,.12.16c-.06-.11,0-.2.13-.27C490.19,570.83,490.08,570.81,490.05,571Zm1.52-41.31,0,.16C491.29,529.79,491.42,529.75,491.57,529.69Z" transform="translate(-88.21 -272.29)" style="fill:#6953a3"/><path d="M505,550.64l.25.12A.4.4,0,0,0,505,550.64Z" transform="translate(-88.21 -272.29)" style="fill:#6953a3"/><path d="M496.92,541.67v0l-.08.05Z" transform="translate(-88.21 -272.29)" style="fill:#6953a3"/><path d="M492.7,562.56a.66.66,0,0,1,.32,0A.23.23,0,0,0,492.7,562.56Z" transform="translate(-88.21 -272.29)" style="fill:#6953a3"/><path d="M488.73,573.47l.14-.31c-.09.12-.21.09-.32.09C488.64,573.32,488.8,573.4,488.73,573.47Z" transform="translate(-88.21 -272.29)" style="fill:#6953a3"/><path d="M484.63,573.35c0,.08-.07.08-.06.15l.17.15C484.87,573.5,484.84,573.27,484.63,573.35Z" transform="translate(-88.21 -272.29)" style="fill:#6953a3"/><path d="M487.38,572.55c-.3-.27-.35,0-.45.19l0,0C487.31,573.16,487.35,572.86,487.38,572.55Z" transform="translate(-88.21 -272.29)" style="fill:#6953a3"/><path d="M486.9,572.79a.41.41,0,0,1-.14.15C486.9,573.12,486.85,572.91,486.9,572.79Z" transform="translate(-88.21 -272.29)" style="fill:#6953a3"/><path d="M489.78,571.64c-.15,0,.32.42.16.34C490.22,572.43,490,571,489.78,571.64Z" transform="translate(-88.21 -272.29)" style="fill:#6953a3"/><polygon points="398.1 299.45 398.51 299.74 398.31 299.37 398.1 299.45" style="fill:#6953a3"/><path d="M487.84,570.73l-.36.16a.18.18,0,0,1,.06.19C487.7,570.93,488,570.83,487.84,570.73Z" transform="translate(-88.21 -272.29)" style="fill:#6953a3"/><path d="M487.54,571.08a.31.31,0,0,0-.15.26A.77.77,0,0,0,487.54,571.08Z" transform="translate(-88.21 -272.29)" style="fill:#6953a3"/><polygon points="398.34 298.99 398.49 298.99 398.7 298.83 398.34 298.99" style="fill:#6953a3"/><path d="M490.66,568l.18-.38c-.09-.15-.24-.15-.3,0S490.5,568,490.66,568Z" transform="translate(-88.21 -272.29)" style="fill:#6953a3"/><path d="M488.85,567.92c.15,0,.23.07.39.14l-.43-.45Z" transform="translate(-88.21 -272.29)" style="fill:#6953a3"/><path d="M489.56,567c-.09-.15.06-.76-.27-.38C489.38,566.77,489.2,567.15,489.56,567Z" transform="translate(-88.21 -272.29)" style="fill:#6953a3"/><polygon points="406.13 291.04 406.06 291.12 406.79 291.83 406.13 291.04" style="fill:#6953a3"/><path d="M496.33,557.89c-.5.16.37.52-.15.61.1.25.42-.07.49.15C496.69,558.27,496.9,558.27,496.33,557.89Z" transform="translate(-88.21 -272.29)" style="fill:#6953a3"/><path d="M496.67,558.65a1.86,1.86,0,0,0,0,.22A.48.48,0,0,0,496.67,558.65Z" transform="translate(-88.21 -272.29)" style="fill:#6953a3"/><polygon points="390.69 244 390.63 243.64 390.52 244.02 390.69 244" style="fill:#6953a3"/><path d="M478,516.42l.41-.51-.55.29C477.89,516.23,478,516.28,478,516.42Z" transform="translate(-88.21 -272.29)" style="fill:#6953a3"/><path d="M503.4,549.2l.11-.11.11-.12a.42.42,0,0,0-.08-.14C503.51,549,503.5,549.13,503.4,549.2Z" transform="translate(-88.21 -272.29)" style="fill:#6953a3"/><polygon points="412.69 273.73 412.73 273.78 413.05 273.28 412.69 273.73" style="fill:#6953a3"/><path d="M497.94,544.12c.08.11.29.14.37.25C498,544.23,498.43,543.57,497.94,544.12Z" transform="translate(-88.21 -272.29)" style="fill:#6953a3"/><path d="M481.05,550.3c.16-.1.05-.28-.43-.22l-.32.35Z" transform="translate(-88.21 -272.29)" style="fill:#6953a3"/><path d="M477.76,549.86c-.56.19-1.2.5-.82.79.55-.35.69-.23,1.27-.63.49-.07.86.06.78.18.17-.09.76,0,1-.18a3.59,3.59,0,0,0-2.26.06C477.55,550,477.72,549.92,477.76,549.86Z" transform="translate(-88.21 -272.29)" style="fill:#6953a3"/><path d="M430.65,547.83l.29.08A1.48,1.48,0,0,0,430.65,547.83Z" transform="translate(-88.21 -272.29)" style="fill:#6953a3"/><path d="M402.07,541.94c.22,0,.32,0,.33,0C402.2,541.92,402,541.89,402.07,541.94Z" transform="translate(-88.21 -272.29)" style="fill:#6953a3"/><path d="M397.38,540.22l.28.11A.62.62,0,0,0,397.38,540.22Z" transform="translate(-88.21 -272.29)" style="fill:#6953a3"/><path d="M430.65,547.83l-.76-.19C429.82,547.74,430.27,547.76,430.65,547.83Z" transform="translate(-88.21 -272.29)" style="fill:#6953a3"/><path d="M471.27,551a1.7,1.7,0,0,0,.43-.1l-.4,0Z" transform="translate(-88.21 -272.29)" style="fill:#6953a3"/><path d="M443.48,548.87l.24,0,.2-.12Z" transform="translate(-88.21 -272.29)" style="fill:#6953a3"/><path d="M453.34,549.36c-.22,0-.31.25-.4.37a.91.91,0,0,1,.5-.17A.3.3,0,0,0,453.34,549.36Z" transform="translate(-88.21 -272.29)" style="fill:#6953a3"/><path d="M469,549.88l.27,0Z" transform="translate(-88.21 -272.29)" style="fill:#6953a3"/><path d="M436.45,548.2a.36.36,0,0,0-.08-.12S436.4,548.16,436.45,548.2Z" transform="translate(-88.21 -272.29)" style="fill:#6953a3"/><path d="M248.71,369.59h0C248.72,369.53,248.7,369.51,248.71,369.59Z" transform="translate(-88.21 -272.29)" style="fill:#6953a3"/><path d="M247.72,358l0,.16h.16Z" transform="translate(-88.21 -272.29)" style="fill:#6953a3"/><path d="M388.86,537.05l0,0C389.13,537.12,389,537.08,388.86,537.05Z" transform="translate(-88.21 -272.29)" style="fill:#6953a3"/><path d="M318.63,493.27c.49.85-1.32-.86-.5.34C318.11,493.44,319.35,494.22,318.63,493.27Z" transform="translate(-88.21 -272.29)" style="fill:#6953a3"/><path d="M471,551h0Z" transform="translate(-88.21 -272.29)" style="fill:#6953a3"/><path d="M318.13,493.61h0l.09.12Z" transform="translate(-88.21 -272.29)" style="fill:#6953a3"/><path d="M369.47,529.17a.43.43,0,0,0,.14.21S369.58,529.29,369.47,529.17Z" transform="translate(-88.21 -272.29)" style="fill:#6953a3"/><path d="M383.64,535.75l-.35-.18Z" transform="translate(-88.21 -272.29)" style="fill:#6953a3"/><path d="M362.06,525.85a1.71,1.71,0,0,0-.49-.29.13.13,0,0,0,.06.07A1,1,0,0,1,362.06,525.85Z" transform="translate(-88.21 -272.29)" style="fill:#6953a3"/><path d="M354.7,521.7l.11.12.24.12Z" transform="translate(-88.21 -272.29)" style="fill:#6953a3"/><path d="M256.07,394.42a1.16,1.16,0,0,1,.12-.45C256,394.16,255.57,393,256.07,394.42Z" transform="translate(-88.21 -272.29)" style="fill:#6953a3"/><path d="M471.26,550.82a.32.32,0,0,1-.25.13l.29,0S471.32,550.84,471.26,550.82Z" transform="translate(-88.21 -272.29)" style="fill:#6953a3"/><path d="M360.7,527.64l-1.18-.68C359.85,527.17,360.27,527.41,360.7,527.64Z" transform="translate(-88.21 -272.29)" style="fill:#6953a3"/><path d="M281.7,449.8l-.19-.25A.74.74,0,0,0,281.7,449.8Z" transform="translate(-88.21 -272.29)" style="fill:#6953a3"/><path d="M356,525a3.65,3.65,0,0,0-.56-.55,1.15,1.15,0,0,0-.18,0Z" transform="translate(-88.21 -272.29)" style="fill:#6953a3"/><path d="M256.19,394Z" transform="translate(-88.21 -272.29)" style="fill:#6953a3"/><path d="M252.82,385.68c.37,1.24.52.47.81.67.55,1.44,0,.76-.07,1.32.38.89.93,1.49,1.13,2.17,0,.07,0,.21-.14.08.58.88.95,2.86,1.67,3.87a.39.39,0,0,1,0,.18.5.5,0,0,1,.42-.34c.19.54.57.94.41,1.22-.11-.34-.21-.33-.34-.46l.3.53c-.15.63-.38-.74-.62-.66a21.79,21.79,0,0,1,1.41,3.17c-.26.3-.8-2-.69-.72l-.33-1.36c-.16,1.18-.25-.82-.47.3.51,1.77.83,1.89,1.37,3.66.32.32.22-.23.53.1,1.21,2.34-.1,2.23,1,3.87a2.32,2.32,0,0,1,1.13,1.77l-.53-.3c.6,1.69.88.76,1.32,2.59-.26-.25-.63-1.26-.57-1,.16,1.24.51.72.85,1.58l-.24.31c.73,1.75,1.78,3.58,2.63,5.51-.14-.07-.37-.37-.28.13a77.2,77.2,0,0,1,3.08,7.64l.66.77c.09.21.06.44-.1.24.32,1,.19,0,.5.35s.17.75-.07.46a31,31,0,0,1,3.17,6.11l-.24-.29c.53,1.35,1.26,1.2,1.61,2.52l-.17-.21c1.31,2.86,3.15,5.8,3.91,8.1.58.21,1.33,2.82,2,2.7a22.83,22.83,0,0,0,1.36,3.6c.32.59.83.68,1.31,1.36l-.26.18.86.8v.71l.46.63c-.14-.27-.21-.64-.11-.64a6.8,6.8,0,0,1,1.24,2.76l1.74,2.31c-.14,0-.43-.37-.7-.66,1.08,1.15-.12.42.87,1.46,0-.2.21,0,.28,0a14,14,0,0,0,1.81,3l-.3-.07c1.11,1.83,2.59,3.7,4,5.69-.41-.77,0-.82.44-.26l-.11.42c.42.26-.32-.68.41,0,.48.76,0,.71-.34.35.24.28.47.56.72.83,0,.11-.23-.07-.37-.06.42.25.83,1.73,1.5,2l0,.1c1.39,2,2.13,2.77,3.34,4.32.25-.14.66.51,1.2.83a37.28,37.28,0,0,0,2.71,3.93c.87.87.41.13.88.45-.14.23,1,1.57.25,1a50.24,50.24,0,0,0,3.59,3.89c-.1-.29-.27-.56-.1-.49.34.34.62.9.48.93l-.1-.08a24.94,24.94,0,0,1,3.05,3.72,12.73,12.73,0,0,0,2.91,3.25l-.11-.08,1.87,1.59c.74.84-.6-.36-.14.36,2.09,1.63,2.88,3,4.6,4.35a9.35,9.35,0,0,0,2.58,2.93,22.35,22.35,0,0,1,3.09,3l0-.22c.56.26.46.55.76.87.05-.15-.37-.54,0-.37,1.94,1.55,3.78,3.33,5.71,5l2.87,2.61,2.94,2.49c1.45,1.17,1.37-.06,3,1.67l-.74-.13a53,53,0,0,1,4.73,3.2,53.86,53.86,0,0,0,4.76,3.06c-.22-.06-.28,0-.58-.18a5.26,5.26,0,0,0,2.51,1.43c.47.32,0,.22.26.49.59.53,1.83.78,2.05,1.2,0,.07-.23-.05-.36-.11.5.17,2,1.28,1.73.78,1.09.87,2.33,1.25,3.2,1.94.77.1,2,1.31,2.38,1-.31.35,1.92,1.52,2.81,1.72-.33,0,.6.48.21.49.88.46,1.73.81,1.68.53,1.37,1.35,3.46,1.33,4.09,2.38,2.77,1.08,5.29,2.13,7.78,3.07-.27.37-2.71-1.14-2.8-.67a47.74,47.74,0,0,1,6.12,2.19c.57.31-.41,0-.64,0,2.39.81,4.51,1.85,6.68,2.46,0,0-.26,0-.49-.06.42.15.93.44,1,.23l-.42-.11c-.28-.27.19-.25.73-.18a6.51,6.51,0,0,0,1.26.09c-.91.3,2,.87.66,1.17.28.06.66.1.64-.06.4.19.5.31,0,.31a21.24,21.24,0,0,1,2.42.51c0,.09-.32,0-.5.09a7.72,7.72,0,0,1,2.62.59c-.09,0,0,.15-.33,0,2,.6,3.54.57,5.66,1.43-.77.21.7.36.71.76.4.09.8.17,1.21.24l-.43-.31a26.46,26.46,0,0,1,2.88.64l-.81-.06,2,.46-1.06-.44c1.1.1,0-.48,1.36,0a12.58,12.58,0,0,1,1.52.65h0a5.53,5.53,0,0,1,1.85.32c.17.17-.27.37-.15.47.58-.18,2.47.49,3.19.32-.24,0-.29.21-.23.27l.49-.15c.46.19.52.25.41.38,1.44.38-.36-.57,1.32,0a1.73,1.73,0,0,1-.37,0,22.19,22.19,0,0,0,2.53.56,19.13,19.13,0,0,1,2.44.46c.4.46-1.42-.18-.94.23,2.34.37,4.88.54,7.12,1l-.42-.1c.41-.48,1.64.52,2.82.45-.28,0-.41.24-.33.19a39.72,39.72,0,0,0,5.55.53l-.31.1c.9.24,2.4.36,3.39.54.31-.1.87,0,.55-.24a12.23,12.23,0,0,0,4.37.66,13.26,13.26,0,0,1,4.14.41c-.33,0-.79.06-.53.08l2.32.07c-.16-.25-.29-.17-.76-.39a4.35,4.35,0,0,1,1.53-.11c-1.05.06,0,.37.43.53-.07-.07.08-.14,0-.21,1.18.5.23-.45,1.87-.09l-.1.12a12.58,12.58,0,0,1,1.86-.1c.27.28-.66.1-.72.31.94,0,1.88-.41,2.71-.1-.4.05-1,0-1.37.08a4.63,4.63,0,0,0,1.7.37h-.07l1.58.22-.4-.11c1.2-.63,2.39,0,4-.46-1.54.41-.26.25-.38.55.4.09,1,.19.84.27.75-.23,1.24.22,2.3-.13.05.1.8,0,.63.27,1-.07-.23-.18-.14-.3,1.49-.32,3.52.49,5.67,0,1.85-.22,2.19-.56,3.91-.76.58.15-.47.37-.47.37a8.83,8.83,0,0,0,2.52,0c-.17.08,0,.15.29.26.71,0,.46-.36,1.4-.26a2.69,2.69,0,0,1-.69.42c.83-.13,1.65-.35,2.5-.49.24.16-.51.29-.81.42a9.34,9.34,0,0,0,2.8-.57l-.63-.07c.36,0,.2.22-.06.29-.82.25-1.21,0-1.26-.13l.61-.09c-.65-.55-2.46.23-3.7.23l.5-.43-1.26.37c-.27-.1-.46-.33.15-.4-.9-.19-.79.16-1.55,0-.09,0-.05-.06,0-.08l-.87.14c.17-.09-.15-.29.39-.24-1.56-.21-2.51.36-3.1.06l.13,0c-2.15.18-.2.31-1.82.7l-1.09-.73-.21.3c-.23,0-.67,0-.58-.16-.83.19.14.13-.34.32-1.07-.29-3,.09-3.2-.4-.39.23,1,.19-.12.34-.32-.53-1.33.07-2.3-.19.31-.26,1.23-.11.26-.36-.61.44-1.91-.11-2.73-.07-.05.37-1.8.07-3.19.12.1-.12-2.59-.33-3.87-.52l.05-.06c-.28.36-1.6.22-2.57.2.06-.21.24-.29.76-.34l-.9-.07a2.93,2.93,0,0,1-1.1.13l.25-.26a25.94,25.94,0,0,1-4-.19c-.11.24,1.17.81-.49.84-.05-.14-.09-.38.35-.4a2.63,2.63,0,0,1-.79,0l.68-.18c-.7-.16-.39.16-1,.09,0-.19-.4-.17-.3-.32a2.94,2.94,0,0,0,.71.06,4.55,4.55,0,0,1-1.63-.45c0,.11,0,.26-.5.23-1.2-.13-.38-.29-1.07-.47-.31.1-1.06-.13-1.11.16a.81.81,0,0,1-.53-.29c-.63.06-2.9-.31-2.24.09l.15,0h-.1c-2.08.08-4.2-.75-6.23-.94l0-.09a32,32,0,0,0-3.58-.28c-.36,0-.8-.33-.63-.42a7.48,7.48,0,0,1-2.34-.43c.95,0-.29-.21,1,.06a7.27,7.27,0,0,0-2.72-.5c.48-.17-.83-.49-1.41-.52l.79.34c-.64-.09-1.19-.22-1.74-.35l.37-.27c-2.33-.87-4.49-.31-6.17-1.38-.69.08,1.27.46.64.6a22.81,22.81,0,0,1-2.48-1.12c-1.46-.55-1.52.1-3.06-.44.17.17.28.53-.93.32s-1.21-.85-.5-.76c.27.07.39.14.36.17.37.06.85.13.45-.11l-.18.08c-.51-.27-2-.66-1.61-.76-.86-.11-.41.1.19.32-1.36-.55-2.2-.57-3.59-1.15.21.13.38.33.15.26-2.06-.79-1-.07-2.43-.47-.75-.42.42-.32-1.06-.62-.83-.39-.09-.36.29-.34a10.89,10.89,0,0,1-3.11-1.2c.24,0,.47.11.71.15a7,7,0,0,1-1.09-.33l.31.37c-.38-.18-.72-.3-.68-.39-.46,0,.19.48-.7.39-.49-.3-1.66-.45-1.74-.81,1.64.69-.07-.36,1.35.09a4.94,4.94,0,0,1-1-.36c-.05-.06.08,0,.2,0-1.5-.83-.86.07-2.51-.52.27-.09-.27-.45-.55-.51.67.24.22.39-.44.3a7.62,7.62,0,0,0-1.72-.57l.6.3c-.27.09-.79-.14-1.54-.38,0-.15.7.17.46,0-.93,0-1.71-1-2.92-1.28-.48-.31.07-.32-.35-.58-1.36-.28-1.28-.77-2.66-1.17.28.38.37.36-.64.17l2.22.78c-.51-.08-1-.19-1.52-.28.65.29,1.43.47,1.82.65-.75-.08-.66-.11-.42.2-.76-.7-1.85-.58-2.79-1.25l.27-.53c-1.43-.93-2.88-.9-4.8-2l.59.4c-.36.09-1.23-.56-1.91-.78.14-.15-.22-.41-.44-.65,0,.14-1.44-.71-1.79-.45l-.77-.66c-1.55-.85-2.05-.42-3.54-1.27.56,0-.06-.43,1,0-.5-.27-.94-.54-1-.43-.23-.26-1.52-.5-1.89-.91a1.5,1.5,0,0,1-1-.2c0-.07.05-.09.05-.09s-.95-.35-.56.1c-1.23-1.39-4.28-2.4-5.33-3.62-1.11-.56-2.4-1.33-3.37-1.9.1,0,.06-.08.23.05-1.22-1-1.12,0-2.51-1.14-.59-.75.89.35.48-.05.13-.66-1.85-1.07-2.62-2.07l.26.13c-.63-.69-2-1-3.18-1.9,0,0,.09,0,.06-.08a18.55,18.55,0,0,1-3.87-2.11c.51.06.61.28.54-.09-.54-.35-.09.44-1.17-.25-.26-.36-.94-1-.87-1.29l1,.7c-.29-.66-1.28-.9-1.75-1.34l.16-.07c-1.49-1.1-1.75-.8-3.3-2l.09.21c-1.1-.36-.59-.73-1.63-1.17v-.5c-.62-.38-2.17-1.31-3.21-2.07a22.23,22.23,0,0,1,2.82,1.54,10.9,10.9,0,0,0-2.28-1.6,2.88,2.88,0,0,1,.76.53,10.19,10.19,0,0,1-2.94-1.84c.67-.4-2.65-2.59-3-3.71-2.09-1.42-3.56-3.46-5.73-5.41.34,1.14-.62-.57-.91,0-.51-.45-.69-.64-.7-.71l-1.2-1.72c-.22-.47.55.36.6.22-1-1.08-.26-.62-.83-1.43,0,.3-.59-.14-1.13-.8l.64,1c-1.71-1.24-.88-1.64-2.56-2.93l.59.35c-.81-.71-2.72-2.86-3.77-3.33-.08-.19-.12-.49.23-.17-1.66-2-4.21-3.91-5.25-5.65l.24.05c-.34-.34-.75-.46-1-1,.07,0,.24.05.1-.12a7,7,0,0,1-1.36-1.35l.48.31c-1.44-2.06-2.73-2.74-4.13-4.31.33-.26-.74-1.92-1.28-2.75h.07c-1.73-2.34-3.25-3.74-5-5.84a20.62,20.62,0,0,0-1.93-3.3,43.1,43.1,0,0,1-2.42-3.87c.16.39-.32.13-.62-.24-.28-.58-1.22-1.3-.82-1.44l.11.19c.08-.61-.74-1.63-1.25-2.5l-.54.14a15.23,15.23,0,0,0-2.26-4.08,9.87,9.87,0,0,1-1.76-3.32c-.44-.48-.86-1.16-1.28-1.65l.26-.11c-.81-1.59-1.21-2.37-2.35-4.25l.4.29c-.59-1.09-1.46-1-2-2l.2-.5c-1-1.89-1.71-4-3-5.73.07,0,.2,0,.38.31-.47-.9-1.51-3.64-1.86-3.05.33-.2-1-2-1.62-3l.33.05A5.92,5.92,0,0,1,270,424.2c-.11-.31.08-.36.2.07-.34-1-.6-.66-1-1.92l.37.37a3,3,0,0,0-1-1.37,4.1,4.1,0,0,1-.64-2.22,2.19,2.19,0,0,1-.85-1.19c0-.11.21.08.28.18-.58-1.79-1.4-2.43-1.66-3.72a.28.28,0,0,0,.07-.26c.58,1.37,1,2.47,1,2.38.24-.11-.19-1.22.51-.49a14.13,14.13,0,0,1-1.94-3.28.47.47,0,0,1,0-.17l.08.1a2.78,2.78,0,0,0-.32-.67c-.11-.36-.17-.59-.3-.93.14-.2-.42-1.31-.64-1.87-.24.15-.49-.59-.43.18,0-.1.07.09.24.45a1.61,1.61,0,0,0,.12.23l0,0,.59,1.37a2.79,2.79,0,0,1-.72-1.47,8.83,8.83,0,0,1-.74-.6c.06-.91-.32-2.46-.18-2.75-.83-1.64-1.63-4-2.54-4.87-.24-.46-.07-.61-.06-.82a8.32,8.32,0,0,0,.4.73c-.49-.93-1.1-2.88-1.53-3-.29-1.29.57.58-.1-1.09l.19.19c-.62-3.53-2.79-5.14-3.27-9.12,0,.28.06.41,0,.49-1.05-4.36-3-8.74-3.65-13.15a4.42,4.42,0,0,0-.85-2l.22-.34-.66-1.19c-.71-1.74-.06-3.29-1.06-5.47l-.13.34c-.16-.83-.7-2.59-.44-2.5a.63.63,0,0,1-.23-.57l.14-.06-.69-2c-.2-1.6.66.12.25-2.18-.23-.84-.89-2.35-.94-2s.06.9-.09.95l-.22-.77c-.48-.07-1.07-.61-1,1.41l.53,1.3-.13.48-.24-1.14a2.32,2.32,0,0,0,.4,1.5.94.94,0,0,0-.13.61l.71,1.23c-.15.2-.48-.51-.39.39.33.58.27-.67.62.32-.07.69-.28.54.07,1.25-.1.14-.21,0-.33-.3.29.64.46,1.77.78,2.06-.1.72.59,2.24.15,2.28a7,7,0,0,1,.79,1.7c-.79-1,.54,2.3-.07,2.14.66.71,1,2.93,1.63,4.32a.69.69,0,0,1-.19-.35,9.24,9.24,0,0,1,.18,1.66c.41,0,.84,1.25,1.28,1.87-.07,1.1-.62-.48-.88-.07.29-.14.81,1.65,1,1.24,0,.83.08.69-.12,1.17.51,0,.3.69.78,1.24.1,1.17-.36.42.15,1.58C253.32,386.71,252.82,385.68,252.82,385.68Zm11,28h0l-.25-.56Zm1,2.32-.43-1c.06-.12.19-.07.28.17C264.6,415.09,264.78,415.66,264.86,416Zm-.27-5.66c.19.35.19.49.16.57l-.3-.64-.05,0A.44.44,0,0,1,264.59,410.37Z" transform="translate(-88.21 -272.29)" style="fill:#6953a3"/><path d="M264,409.84a.87.87,0,0,1-.08-.14,1,1,0,0,0,0,.24l.13.1Z" transform="translate(-88.21 -272.29)" style="fill:#6953a3"/><path d="M431,547.92h-.06a.23.23,0,0,1,.11.05Z" transform="translate(-88.21 -272.29)" style="fill:#6953a3"/><polygon points="191.93 175.16 191.99 175.12 191.83 174.96 191.93 175.16" style="fill:#6953a3"/><path d="M444.73,550.25a.31.31,0,0,0,.17.09S444.82,550.29,444.73,550.25Z" transform="translate(-88.21 -272.29)" style="fill:#6953a3"/><path d="M450.73,550.63l.84.14A6.87,6.87,0,0,0,450.73,550.63Z" transform="translate(-88.21 -272.29)" style="fill:#6953a3"/><path d="M455.35,550.94a.36.36,0,0,0,.09-.12h0Z" transform="translate(-88.21 -272.29)" style="fill:#6953a3"/><path d="M383.26,537.62l-.17-.06C382.68,537.46,383,537.55,383.26,537.62Z" transform="translate(-88.21 -272.29)" style="fill:#6953a3"/><path d="M404.32,543.66l-.71-.06C404,543.72,404.27,543.81,404.32,543.66Z" transform="translate(-88.21 -272.29)" style="fill:#6953a3"/><path d="M360.83,527.71h0l-.14-.07Z" transform="translate(-88.21 -272.29)" style="fill:#6953a3"/><path d="M402.63,543.33a3.82,3.82,0,0,0,1,.27A5.47,5.47,0,0,0,402.63,543.33Z" transform="translate(-88.21 -272.29)" style="fill:#6953a3"/><path d="M475.39,550.81h.23s0,0,0,0Z" transform="translate(-88.21 -272.29)" style="fill:#6953a3"/><path d="M475.64,550.76l.25,0A.59.59,0,0,0,475.64,550.76Z" transform="translate(-88.21 -272.29)" style="fill:#6953a3"/><path d="M476.4,550.61l-.51.1A1,1,0,0,0,476.4,550.61Z" transform="translate(-88.21 -272.29)" style="fill:#6953a3"/><path d="M469.27,550.91l-.07.11A.14.14,0,0,0,469.27,550.91Z" transform="translate(-88.21 -272.29)" style="fill:#6953a3"/><path d="M467.41,551a11,11,0,0,0,1.74.12l.05-.08C468.92,551.17,467.83,550.8,467.41,551Z" transform="translate(-88.21 -272.29)" style="fill:#6953a3"/><path d="M459.65,549.77l1.56.1c-.28-.11-.63-.26.07-.28C459.33,549.24,461.69,549.84,459.65,549.77Z" transform="translate(-88.21 -272.29)" style="fill:#6953a3"/><path d="M454.85,549.54c.83,0,0-.16,0-.22C454.36,549.41,454.23,549.44,454.85,549.54Z" transform="translate(-88.21 -272.29)" style="fill:#6953a3"/><path d="M420.3,546.07l.13-.24C419.79,545.75,420.41,545.93,420.3,546.07Z" transform="translate(-88.21 -272.29)" style="fill:#6953a3"/><polygon points="325.3 273.81 325.88 274.08 326.22 273.91 325.3 273.81" style="fill:#6953a3"/><polygon points="321.86 271.15 322.14 271.18 321.08 271.03 321.86 271.15" style="fill:#6953a3"/><path d="M356.13,522.23v.37C356.54,522.77,356.8,522.51,356.13,522.23Z" transform="translate(-88.21 -272.29)" style="fill:#6953a3"/><path d="M335.17,508.36a2.15,2.15,0,0,0-1.05-.95A13.12,13.12,0,0,0,335.17,508.36Z" transform="translate(-88.21 -272.29)" style="fill:#6953a3"/><polygon points="197.57 179.57 197.93 179.94 197.35 179.18 197.57 179.57" style="fill:#6953a3"/></svg>