<?xml version="1.0" encoding="utf-8"?>
<!-- Generator: Adobe Illustrator 25.4.1, SVG Export Plug-In . SVG Version: 6.00 Build 0)  -->
<svg version="1.1" id="Layer_1" xmlns="http://www.w3.org/2000/svg" xmlns:xlink="http://www.w3.org/1999/xlink" x="0px" y="0px"
	 viewBox="0 0 1921.8 1082.4" style="enable-background:new 0 0 1921.8 1082.4;" xml:space="preserve">
<style type="text/css">
	.st0{fill:none;stroke:#9205DD;stroke-width:2;stroke-linecap:round;stroke-linejoin:round;}
	.st1{fill:none;stroke:#9205DD;stroke-width:3;stroke-linecap:round;stroke-linejoin:round;}
	.st2{fill:none;stroke:#9205DD;stroke-width:3;stroke-linecap:round;stroke-linejoin:round;stroke-dasharray:11.9729,11.9729;}
	.st3{fill:none;stroke:#9205DD;stroke-width:3;stroke-linecap:round;stroke-linejoin:round;stroke-dasharray:12.0454,12.0454;}
	.st4{fill:none;stroke:#9205DD;stroke-linecap:round;stroke-linejoin:round;}
</style>
<path class="st0" d="M1480.8,410.2c-10.9-8.6-29.6,6-42.5,14.5c-3.2,2.2-2.4,1.1-6.5,6.5c-2.3,7-23.9,37.8-46.5,45.4
	c-15.8,5.3-29.3,1.9-38.1-14.3c-6.5-12-16.7-19.9-29.9-24.1c-12.1-3.9-24.1-8.1-36-12.5c-5.2-2-10.3-4.5-15-7.5
	c-9.6-6.2-18.4-4.4-27.6,1c-15.6,9.2-29.8,20.5-42.3,33.6c-10.1,10.6-15.8,23.1-14.3,38c0.5,5.6,2.7,11.1,4.4,16.5
	c3.2,10.1,7.8,19.8,8.4,30.5c0.4,7.3,1.2,14.7,0.9,22c-0.2,5.4-2,10.7-2.8,16c-2.3,14.3-10.4,14.2-21,12.4
	c-6.9-1.2-13.6-3.9-20.5-5.3c-15.5-3.2-30-0.5-43,8.9c-12.2,8.9-22.4,19.5-29.6,33c-5.4,10-7.2,20.4-4.9,31.5
	c3.3,16.3,6.7,32.7,10,49c2,9.6,7.5,17.5,11.9,26c5,9.5,9.5,19.2,14,29c1.1,2.7,1.7,5.6,2,8.5c0.7,4.9-2.3,9.6-7,10.9
	c-3.2,1.1-6.6,1.8-10,2c-5.3,0.3-10.7,0.3-16,0c-16.6-1-30.6,5.2-43,15.5c-10.6,8.8-22.3,15.7-36,17.2c-8.8,1-18-0.2-27-1.4
	c-11.8-1.5-23.6-4.2-35.5-1.3s-17.9,9.9-19.7,21.9c-1.9,12.4-0.1,24.5,1.8,36.5c2.5,15.8,6.6,31.3,9.2,47c1.7,10,2.8,20.1,7.1,29.5
	c6,12.8,16.3,21,29.1,25.9c11.2,4.2,23,6.6,34.9,7.1c12.2,0.7,24.4,1.2,36.5,2c18.4,1.4,37,2.5,55,7c13.7,3.5,27,7.8,37.2,18.8
	c3.8,4,8.4,7.2,13.4,9.5c10.7,4.9,18.6,3.5,26.4-6.9c2.6-3.5,4.7-7.3,7-11c7.1-11.3,15-11.8,26-9.9c14.1,2.4,28,6,42,8.3
	c15.1,2.5,30.4,3.7,45.4,6.3c10.8,1.9,21.7,4.3,31.9,8.1c13.4,5,18.7,12.8,20.2,28.3c1.1,12.2-1.2,24-2.1,36"/>
<path class="st0" d="M1492.3,393.7"/>
<path class="st0" d="M1619.8,1076.2c-2.2-13.5-2.9-26.9-0.2-40.5c2-10.3,2.6-20.9,3.1-31.5c0.3-8.3-0.8-16.7-0.8-25
	c0-9,1.5-18,4.4-26.5c1.8-5.7,6.3-10.2,12-12c7.9-2.7,15.9-5.2,23.5-8.6c10.2-4.5,17.7-12.1,17.4-23.9c-0.6-17.3-4.3-33.9-19.4-44.9
	c-10.8-7.8-22.2-5.3-32.9,1c-8,4.7-14,11.6-19.6,18.9c-2.1,2.7-4.7,5-6.9,7.5c-7,8.2-15.4,6.7-23.5,2.4
	c-10.2-5.4-16.5-14.8-21.9-24.5c-7.2-13-14-26.4-19.9-40c-3.6-8.2-5.1-17.3-7.8-25.9c-1-3.3-2.3-6.5-4-9.5
	c-4.2-7.5-13.6-9.1-20.3-2.9c-4.8,4.4-8.5,9.8-12.6,14.9c-7.2,8.9-16.8,14.2-27.5,17.4c-13.8,4.2-28.2,5.8-42.5,7
	c-4.7,0.4-9.3,1-14,1c-18.4,0.1-24.3-11.6-22.3-26.4s8.1-27.9,19.2-38.6c7-6.8,15.7-10.1,24.6-12.8c13.6-4.2,22.2-12.7,26.1-26.5
	c4.2-14.8,10-28.8,19.8-41.1c11-14.1,24.6-26,40.1-34.9c8.4-4.8,16.6-10,23-17.4c11.2-13,5.3-26.4-4.6-33.4c-7.1-5-14.6-9.3-22.5-13
	c-11.9-5.6-16.5-15.2-16.9-27.6c-0.5-14.4-3.2-28.5-6.4-42.5c-3.1-13.4-5.8-27.1-4.4-41c1.4-11.8-8-7-5.1-18.5
	c3-12.5,19.5-34.9,3.8-46.5"/>
<path class="st0" d="M1608.8,1076.2c-4.1-14-6.8-28.5-4.8-43c2.9-21.5,1.6-43,1.5-64.5c0-11-1-22.3-4.7-33c-2.4-7.2-6.9-13.5-13-18
	c-7.7-5.8-15.2-11.8-23-17.5c-9-6.6-15-15.8-21.4-24.6c-7.4-10.1-14.3-20.7-21.6-30.9c-2.6-3.5-5.6-6.7-9-9.5
	c-3.8-3.1-8.5-4.7-13.4-4.7c-12.3-0.3-24,2.9-36,4.6c-6.5,0.9-13,1.6-19.5,2.5c-10,1.4-20,2.9-30,4.5c-8,1.3-16.1,2.7-24,0.4
	c-10.4-3-16.8-9.2-17.8-21.9c-2-25.2,7.6-46.9,22.8-66.5c5-6.4,12.3-10.4,19.5-12.8c15.7-5.2,25.2-15.5,30.5-30.7
	c5.8-16.4,16.5-29.9,26.9-43.5c9.4-12.4,20.7-23.2,33.5-32c3.5-2.5,6.5-5.5,9-9c3.3-4.6,1.8-9.4-2.9-12.9s-10.1-4-15.5-4.4
	c-3.7-0.3-7.3-0.3-11,0c-12.1,1.2-20.6-10.5-17.4-22.5c2.2-8.6,5.1-17,7.4-25.5c3.7-13.6,3.6-28-0.4-41.5
	c-4.6-16.4-8.4-33-12.6-49.5c-0.6-2.4-2-4.7-2.9-7c-2.5-6-6.3-8.7-14.4-3.9c-8.2,5-16.1,10.5-23.6,16.5c-11,8.6-22.8,15.7-36.6,18.9
	c-10.2,2.3-20.6,4-31,1.5c-10.2-2.5-17.7-8.7-23.1-17.9c-3.4-5.8-7-11.7-11.6-16.4c-4.2-4.3-9.3-7.8-14.9-10
	c-13.8-5.1-27.8-9.6-42-13.6c-11.2-3.2-22-1.2-32,4.9c-8.7,5.1-16.4,11.9-22.6,20c-7.9,10.6-10.1,22.3-7,35c3,12.3,6.3,24.6,8.9,37
	c2.1,9.9,3.2,20,5.1,30c3,15.4,12.7,26.5,24,36.5c8.2,7.3,16.7,14.3,24.4,22.1c6.7,6.8,9.7,16.9,4.6,25.4c-3.3,5.6-8.5,8.7-14,11.5
	c-5.2,2.6-10.2,5.5-15.5,8c-18.8,8.6-30.9,23-36.9,42.6c-3,9.3-5.3,18.8-6.9,28.5c-2,13-8.5,23-18.2,30.9c-10.5,8.4-20.3,17.8-29,28
	c-4.4,5.4-10.2,9.4-16.8,11.6c-7.9,2.4-14.9-0.6-22-3c-9-3-17.9-6.4-27-8.9c-12.2-3.4-23.6,0.2-33.9,6.5
	c-10.7,6.5-21.1,13.6-33.1,17.3c-12.6,4-26,4.8-39,2.3c-9.1-1.8-18.4-3.8-28-1.3c-11,2.9-16.7,8.5-18.9,19.1
	c-2.7,12.7-0.5,25.2,2.9,37.5c4.8,17.2,9.3,34.3,14,51.5c4.6,16.4,15.6,27,31.5,31.8c10.7,3.2,21.9,5.1,33,7.1
	c10.8,2,21.6,3.6,32.5,5c8,1,16,1.5,24,2c10,0.7,20,1.8,30,1.9c11.7,0.3,23.1-3.7,32-11.4c4.5-3.8,9.2-7.6,14-11
	c13.4-9.4,27.5-8.7,39.9,1c9.2,7.2,18.2,14.6,29,19.5c11,4.9,22.6,8.2,34.5,9.9c16.3,2.4,32.6,4.8,49,7c10,1.3,20,1.9,30,3.1
	c6,0.7,12.1,1.7,18,3c11.4,2.6,17.2,9.4,17.5,20.9c0.4,16.6-0.1,33.1-2.9,49.5c-0.2,2-0.2,4,0,6"/>
<path class="st1" d="M1617.8,1080.4c-0.6-1.9-1.2-3.8-1.8-5.7"/>
<path class="st2" d="M1590.6,1059c-2.1-6.8-4.1-13.5-6.2-20.3c-0.4-1.6-0.6-3.3-0.5-5c0.3-13,0.3-26,1.1-39c0.5-7.5,2.4-15,3.3-22.5
	c2.2-17-1.1-32.8-13.1-45.3c-9.5-9.8-20.5-18.1-30.3-27.7c-8.5-8.3-16.2-17.5-24.1-26.4c-6.8-7.7-12.8-15.9-22.4-20.7
	c-6.9-3.3-14.4-5.1-22.1-5.2c-21.2-0.6-41.9,2.5-62.5,7.3c-9.5,2.2-19,3.6-29,1.7c-15.7-2.9-21.6-14.7-24-27.6
	c-3-16,0.3-31.4,5.1-46.5c3.3-10.3,7.1-20.4,11-30.5c4.9-12.8,13.4-22.1,26.5-27c12.3-4.7,21.5-12.4,27.2-24.9
	c5.2-11.5,12.7-21.9,18.7-33.1c5.3-10.1,6.2-21-1-30.3c-14-18-12.6-36.7-4.3-56.1c4-9.4,9.5-18.1,13.3-27.6
	c6.7-16.6,1.2-35.7-12.3-47c-5.8-4.8-12.7-4.2-19-3.3c-15.9,2.4-31.7,6.1-47.5,8.7c-9.7,1.7-19.6,2.7-29.5,2.9
	c-16.2,0.1-29.5-6-38.6-20.3c-3.6-5.9-8-11.2-13-15.9c-9.4-8.3-21.7-10.6-33.4-13.6c-7.3-1.8-14.5-3-22-1c-13,3.3-21.5,14.6-22.1,28
	c-0.8,15.9,4.3,30.8,7.2,46c1.5,7.9,3.4,15.7,5.5,23.5c4.7,17.8,15.9,30.6,31.4,40c6.4,3.8,12.6,8,18.4,12.5
	c8.8,7.1,10.7,17.6,12.5,27.9c0.7,4.1,1.4,8.4,0.9,12.5c-0.9,7.6-6.6,11.2-13.3,13.5c-9.3,3.3-18.8,6.3-28,10
	c-21.9,8.9-34.1,25.1-35.5,48.9c-0.4,6.6-0.1,13.3,0,20c0.1,11.4-4.3,20.2-14,26.6c-13.1,8.7-26.5,17-37.5,28.4
	c-5.7,5.9-11.3,12-17,18c-9.8,10.4-21.9,12.3-35,8.4c-8.6-2.7-16.9-6.1-25-10c-14.6-6.9-28.5-5.3-42.6,1.5
	c-13.7,6.7-27.6,13.1-42.5,16.5c-10.4,2.4-20.9,2.3-31.5,0.8c-6.8-1-13.7-1-20.5,0c-8.5,1.2-12.7,7.3-14.5,15.8
	c-2.5,11.8,1.9,22.6,5.4,33.5c3.4,10.4,6.6,20.9,9.5,31.5c3.7,13.7,9.8,26,23.1,32.3c8.3,3.8,17,6.6,25.9,8.5
	c16.4,3.8,32.9,7,49.5,10c7.3,1.3,14.6,2,22,2c16,0,30.6-4.1,43-14.8c9.6-8.3,20-15.6,32.5-19c16.7-4.6,32.2-3.3,45,10.4
	c7.4,7.9,14.8,15.7,24.4,21.1c10.6,6,22.1,8.8,34,10.4c10.2,1.4,20.3,3.3,30.5,3.9c20.1,1.2,40.5,4,60-4c8.1-3.3,15.7-7.6,23.5-11.4
	c8.7-4.2,15.1-4.1,21.9,2.6c5.1,4.8,8.9,10.8,11.2,17.4c2.4,6.8,0,12.3-3.3,17.5c-5.6,8.8-11,17.7-12.8,28.1c-1.6,8.9-2.4,18-3.6,27
	c-0.2,1.9-0.5,3.7-0.7,5.6"/>
<path class="st1" d="M1401.5,1074.4c-0.2,2-0.4,4-0.7,6"/>
<path class="st1" d="M1764.8,1080.4c-0.5-1.9-1.1-3.8-1.6-5.8"/>
<path class="st3" d="M1760.1,1062.9c-1-3.7-2.1-7.4-3.4-11c-4.3-12.7-8.9-25.2-8-39c0.4-7,3-13.7,7.6-19c5.4-6.3,12.1-11.4,19.6-15
	c14.9-7.6,24.8-19.5,32.6-34c5.3-9.9,12.6-18.3,21.2-25.7s15.1-16.6,14-28.8c-0.5-4.9-1.5-9.8-3-14.5c-3.4-10.7-7-21.5-11-32
	c-5.3-13.7-16.2-22.2-28.4-29.6c-11.1-6.7-23.2-10.3-35.5-13.5c-18.2-4.6-31.2-15.1-36-34c-3.3-12.8-6.4-25.6-6-39
	c0.2-5.7,2.7-10.2,8-11.3c5.2-1.2,10.6-1.5,16-1c14.2,1.4,28.3,4.7,42.5,5c16.7,0.4,37.7-12.3,43.5-30.7c4.1-13.1,1.8-25.6-7.2-35.3
	c-19.8-21.5-40.3-42.3-60.9-63.1c-7.3-7.3-16.4-12.1-26.4-15.1c-8.5-2.5-18.9-0.4-22.9,5.6c-2.6,3.9-4.2,8.6-6.1,12.9
	c-2.4,5.3-4.4,10.8-7.1,16c-6.5,12.8-17.7,18.4-31.4,20c-5.7,0.7-11.4,1.1-17,2c-12.9,2.1-19.5,11.1-23.5,22.5s-8.3,22.6-17.6,31
	c-2.4,2.3-5.1,4.3-8,6c-11.6,6-16.8,4.2-25-1.9c-2.7-2-5.2-4.3-8-6c-12.2-7-24.2-3.7-35.4,2.1c-10.3,5.4-18.2,14.5-22.1,25.4
	c-5.2,13.7-2.5,25.1,15.6,28c2.5,0.4,5,1.1,7.5,1.5c15.6,2,23.3,12.6,28.5,26c7.3,19,13.8,38.4,23.4,56.5
	c3.5,6.8,8.3,12.9,14.1,17.9c5.5,4.5,11.9,4.6,18.4,2.1c11-4.1,21.9-8.3,33-11.9c9.4-3,19-4.9,29-2.6c12.3,2.8,20.6,11.2,27.4,21
	c8.9,12.8,15.3,26.8,20.5,41.5c2.5,7.1,5.1,14.2,6.9,21.5c3.7,14.9,0.2,28.5-10.5,39.3c-7.8,8-16.8,14.9-25.4,22.1
	c-9.8,8.1-15.3,18.4-14.9,31c0.5,16.1-3.4,30.6-12.5,44.1c-3.8,5.6-6.5,11.9-7.9,18.5"/>
<path class="st1" d="M1667.8,1074.5c0,0.5,0,0.9-0.1,1.4c-0.2,1.5-0.5,3-1,4.5"/>
<path class="st0" d="M1139.4,1075.7c-4.2-7.7-10.9-13-18.1-17.4c-9-5.6-15.4-13.2-20-22.6c-4.3-8.9-8.3-18.1-15.9-25
	c-7.9-7.1-17.2-10.2-27.5-11c-15-1.2-28.9,3.4-43,7.2c-11.6,3.1-23.5,5.1-35.5,5.9c-5.8,0.4-11.7,1.6-17.5,1.9
	c-11.9,0.6-22.2-2.1-29.6-12.8c-9.4-13.8-22.2-24.3-34.7-35.3c-14-12.2-17.8-26.1-10.1-45.8c4.1-10.6,8-21.2,10-32.5
	c2.6-12.9,1.5-26.2-3.1-38.5c-4.2-11.1-12.9-16.7-24-19.5c-12.8-3.3-25.7-6.1-39-5.5c-0.8-0.1-1.7-0.1-2.5,0
	c-2.9,1.1-5.7,2.3-8.5,3.5c1.5,2.3,2.7,5,4.6,7c11,11.3,16.4,25.2,20.5,40c3.4,12.4,6.8,24.9,11.1,37c4.8,13.6,1.5,24.9-7.1,35.6
	c-5.4,6.8-10.8,13.6-16,20.5c-7.4,9.7-7.3,20.4-2.9,30.9c6.4,15.3,17.9,25.8,33.9,30.4c12,3.5,24.2,6.3,36.5,9
	c12.1,2.7,20,9.4,23,21.6c1.3,5.3,2.7,10.7,4,16"/>
<path class="st4" d="M914.9,1076.2c-3.5-14.5-13.3-23-27-27.5c-11.3-3.7-22.7-6.9-34-10.6c-24.3-7.8-38.8-25-45.4-49
	c-2.3-8.3-0.6-16.7,4.4-23.9c5.9-8.6,12-17,18-25.5c5.5-8,7.9-16.8,8.1-26.5c0.2-12.9-1.7-25.7-5.6-38c-4.3-13.7-12.7-23.3-26.5-28
	c-13.3-4.5-26.8-8.8-40-13.6c-14.8-5.4-29.2-4.3-43.5,1.6c-24.2,10-41.5,27.2-51.8,51c-2.4,5.5-3.2,11.9-3.5,17.9
	c-0.6,9.5,0.4,19-0.3,28.5c-1,13.5-2.5,27.1-4.5,40.5c-2.1,14.6-4.9,29-7.4,43.5c-2,11.6-5.6,22.7-12.5,32.5
	c-5.7,8-10.2,16.5-11,26.5"/>
<path class="st4" d="M900.4,1075.7c-5.9-10.5-15.3-16.5-26.5-20c-9.2-2.8-18.3-5.9-27.5-8.5c-17.8-5-32.2-14.3-41-31
	c-4.3-8.1-8.9-16.1-12.4-24.5c-4.1-10-2.7-20,3.9-28.9c4.3-5.9,8.5-11.8,13-17.5c8.9-11.2,15.5-23.1,16.2-38
	c0.5-11.6-0.6-22.5-5.7-33c-3.6-7.6-10.1-13.3-18.1-15.9c-14.2-5-28.5-9.8-43-14c-16.5-4.7-31.8-0.6-46,8.4
	c-18.7,11.8-28.7,29.3-32.4,50.5c-1.4,8.2-1.5,16.6-2.1,25c-1,14.5-1.9,29-3,43.5c-1.6,19.5-4.8,38.8-4.1,58.5
	c0.3,11-4.3,20.8-10.3,30c-3.3,5.1-5.7,10.6-8.6,16"/>
<path class="st4" d="M884.4,1075.7c-9.1-10.5-21.9-13.7-34.5-17c-7.3-1.9-14.7-3.3-22-5.1c-13.3-3.2-23.8-10.2-30.1-22.9
	c-5.9-12-12.6-23.6-18.3-35.6c-4.2-8.6-5.8-17.9-1-26.9c2.9-5.1,6.3-10,10-14.5c4.1-5.2,8.9-9.8,12.9-15.1c5.9-7.8,11-16.2,13-26
	c2.5-11.8,2.6-23.3-4-34c-3.7-6.2-9.6-10.8-16.5-13c-12.4-3.9-24.6-8.3-37-11.9c-16.1-4.6-30.2,0.6-43,10.4
	c-13,10-19.1,24-21.9,39.5c-1.2,7.8-1.9,15.6-2,23.5c-0.3,12.2,0.3,24.3-0.2,36.5c-0.5,11.5-2.4,23-2.7,34.5
	c-0.3,8.8,0.8,17.7,1.4,26.5c0.5,7.2,2.5,14.1,1.6,21.5c-0.9,7.9-4.8,13.9-9.2,20c-2.4,3.3-5,6.3-7.5,9.5"/>
<path class="st1" d="M1920.3,803.9l-27.5,5c-9.2,1.7-18.4,3-27.5,5.1c-5.6,1.3-8.7,6-10.5,11.4c-5.4,15.2-5.3,30.5-1.6,46
	c1.7,7.4,2.9,14.9,3.5,22.5c1,12.5-5,21.8-14.4,29.5c-12.4,10.1-22,22.2-27.6,37.4c-4,10.8-11.7,18.8-21.8,24.6
	c-7.5,4.2-14.9,8.6-21.1,14.9c-8.9,9.1-10.9,20.1-8.2,31.5c2.4,10.1,7,19.7,10.8,29.6c2.4,6.4,5,12.7,7.5,19"/>
<path class="st4" d="M1920.3,828.9c-12.3,2.3-24.1,6.4-35.1,12.4c-10.9,6-16.9,14.5-16.4,27.1c0.4,8.3,1.7,16.7,1.9,25
	c0.3,11.4-1.2,22.5-10,31c-6.1,5.9-12.9,11.1-18.9,17.1c-8.8,8.7-12.8,19.6-13,31.9c-0.1,3.7-0.1,7.3,0,11c0.2,6.3,2.8,9.6,9.5,9.6
	c13,0,26.1,0.2,38.5-4.7c6.5-2.6,12.6-6.1,19.1-8.9c7.9-3.5,16-6.7,24-10"/>
<path class="st4" d="M1319.5,1076.1c0.7-6.7,1.5-13.3,2-20c1.4-19.6-11.5-31-26.9-34.7c-11.4-2.7-23-3.7-34.5-4.9
	c-9.6-1-19-3.1-28.5-4.3c-7.3-1-14.4-2.7-22-1.7c-9.4,1.3-15,6.3-18.5,14.6c-2.7,6.5-4.6,13-3.9,20c0.8,8.6,7.3,12.5,13.4,17.1
	c5.7,4.2,10.7,9.2,16.1,13.9"/>
<path class="st0" d="M1603.3,1079.9c-5.1-9-10.2-17.9-19-24c-5.1-3.6-11.4-4.9-17.5-3.6c-7.5,1.4-15,2.8-22.5,3.4
	c-10.4,0.8-20.2-2.6-29.5-6.9c-11.7-5.5-23.2-11.5-35-16.9c-9.9-4.7-21.1-6.1-31.9-3.9c-11.6,2.4-19.6,10.1-22.9,21.4
	c-2.9,9.9-4.5,20.3-6.7,30.4"/>
<path class="st4" d="M1091.6,1076.3c-5-13-4.6-27.1-8-40.5c-3.5-13.6-10.9-23.2-25.5-25.5c-8.9-1.4-17.2,0.9-25,5
	c-8.1,4.2-16,8.7-24,13c-10.5,5.6-21.9,7.9-33.5,9.5c-7.7,1.1-15.1,3.1-22,7c-8.3,4.7-11.1,12.3-12,21c-0.4,3.5-0.7,7-1,10.5"/>
<path class="st4" d="M1920.3,470.9c-8.2-1.3-16.4-2.5-24.5-4c-27.3-5.4-49.7,9.9-55,37.5c-4,20.8,1.6,38.7,16,54
	c7.1,7.6,14.3,15,21.5,22.5c9.6,9.9,21.5,14.7,35,16c2.3,0.2,4.7,0.7,7,1"/>
<path class="st4" d="M1920.3,850.9c-7.5,2.3-15.2,4.1-22.4,7.2c-7.6,3.2-12.1,9.8-12.9,17.9c-1,9.9-0.6,20-1.2,30
	c-0.7,10.5-2,21.2-9.5,29.4c-4.1,4.5-9.2,8.2-13.9,12.1c-4.5,3.7-8.6,7.5-8.5,14c0.1,5.7,3.8,9,9.5,9.6c8.8,0.9,16-2.8,23-7.1
	c10.8-6.8,23.2-10.6,36-11"/>
<path class="st0" d="M1920.3,622.9c-6.2,2-13.3,2.5-17.4,8.5c-2.6,3.7-5.4,7.4-6.9,11.5c-2,6.1-6.9,10.8-13.2,12.5
	c-13.2,4-18.6,12.9-19.9,26.5c-0.5,4.8-0.5,9.7,0,14.5c0.8,7,6.5,9.8,12.4,6c7.8-5,12.6-12.6,17-20.5c1.4-2.5,2.8-4.9,4-7.5
	c4.1-9,11.5-12.6,21-12.5h3"/>
<path class="st4" d="M1920.3,489.9c-5.5-0.8-11-1.9-16.5-2.5c-10.5-1-21-1.8-31,2.9c-19.8,9.3-24.6,32.3-8.3,48.3
	c10.2,10,21.9,18.6,33.4,27c5.6,4.1,12.5,6.5,18.9,9.6c1.1,0.4,2.3,0.5,3.5,0.5"/>
<path class="st4" d="M1545.3,1086.9c-6.4,0.1-12-3.1-18-4.9c-20.6-6.2-40.8-13.6-61.6-19.1c-9.7-2.6-18.1,2-23.4,15.2
	c-1.1,2.8-2,5.7-3,8.5"/>
<path class="st4" d="M1920.3,993.9c-16.8,6.4-30.7,17.3-44.5,28.5c-7.4,6-7.4,16,3.1,20.4c13.6,5.8,27.6,10.8,41.4,16.1"/>
<path class="st4" d="M1744.8,1080.4c-1.2-15.3-5.3-29.5-16-41c-4.6-5-7.4-5.1-11.9,0c-11,12.7-22.6,25-29.1,40.9"/>
<path class="st4" d="M1919.8,693.4c-12.1,8.8-17.8,21.5-20.9,35.5c-2.1,9.3-1.8,18.9,1,28c3,10,10.1,15.1,20.5,16"/>
<path class="st4" d="M1920.3,517.9c-6.3-1.5-12.7-3.1-19-4.5c-3.7-0.8-7.5-1.5-11,1c-3.1,2.2-3.6,5-0.9,7.4c2.3,2,4.8,3.6,7.5,5
	c7.8,4.1,15.6,8,23.5,12"/>
<path class="st4" d="M883.4,1080.1c-3.5-1.1-7-2.3-10.5-3.2c-12.6-3.5-25.3-2.6-38-0.5c-6.2,1-12.3,2.5-18.5,3.7"/>
<path class="st4" d="M1920.3,874.9c-12.3,4.4-18.1,11.9-18.4,25c-0.3,5.4,0.1,10.7,1.1,16c1.9,9,8.2,14.1,16.9,16.5"/>
<path class="st4" d="M986.1,1075.8c-5.7-3.2-11.3-5.2-17,0"/>
<path class="st4" d="M1374.3,344.9c-7.3,1.7-14.4,3.4-21.1,7.4c-13.2,7.8-20,19.9-24.3,33.7c-2.9,9.5,2.5,18.8,12.8,24.4
	c16,8.7,33.1,14.6,50.5,19.5c13.4,3.8,21.1-1.1,26-13.4c5.4-13.5,4.9-26.4-3.6-38.5c-5.3-7.5-10.4-15.2-16-22.5
	c-6-7.7-14.1-11.3-23.9-10.5"/>
<path class="st4" d="M1367.3,376.9c-2.3,1.3-5.1,2.3-6.9,4.1c-3.2,3.4-3.6,8.5-1,12.4c4.5,6.5,10.9,10.3,19,10.5
	c9.8,0.2,14-6.3,9.4-14.9c-4.1-7.8-10.1-13.3-19.9-12"/>
<path class="st4" d="M1393.1,520.7c-5.8,0.8-11.7,1.3-17.5,2.6c-11.2,2.4-22.3,5.4-33.5,7.8c-4.6,0.9-9.3,1.4-14,1.5
	c-14,0.8-28,1.2-42,2.1c-6.1,0.4-12.1,1.4-18,3c-10.4,3-15.3,12.7-13.1,23.4c2.4,11.4,9.7,18,20,22c3.8,1.5,7.7,3,11.5,4.5
	c13.6,5.4,22.3,15.7,28.5,28.5c1.2,2.1,2.5,4.1,4,6c4,5.8,9.7,9.6,18.5,6.5c5.9-2.1,12-3.7,17.4-6.6c12.6-6.9,26-11.4,39.6-15.2
	c10.9-3,20-8.2,25.3-18.2c6.3-11.7,11.7-23.7,14.8-36.9c3.2-13.8-3.8-22.5-14.6-26.6c-8.6-3.3-17.6-3.8-26.5-4.4"/>
<path class="st4" d="M1384.1,536.7c-17.5,3.2-32,13.8-48,20.5c-1.6,0.8-3.1,1.8-4.5,3c-9,7.2-9.8,15.2-1,27s20.8,13.5,34,10.4
	c8-1.8,15.8-4.2,23.5-7c14.6-5.4,23.1-16.2,25.4-31.4c1-6.7-3-15.7-10.3-19.1c-5.8-2.6-12.2-3.8-18.6-3.4"/>
<path class="st4" d="M1762.3,482.9c-8.7,2.8-11.9,7.5-9.3,16c3.1,10.1,8.8,18.2,19.3,22.7c8.5,3.6,16.4-1.2,17.6-11.2
	c1.8-15-11-25-21-26.5c-2-0.3-4-0.7-6-1"/>
<path class="st4" d="M1657.3,566.9c-3.3,0.8-6.7,1.6-10,2.5c-11.7,3.3-16.7,10.3-15.5,24c0.8,9.1,5.1,16.6,17.5,20
	c8.5,2.3,16.9,2.8,25-1.9c7.5-4.3,11.6-10.3,11.5-19.1c-0.1-4.8-0.3-9.3-2.3-14.1c-3.6-8.5-10.4-10.5-18.2-11.4
	c-2.5-0.1-5-0.1-7.5,0"/>
<path class="st4" d="M1151.4,597.9c-16.9,4.1-29,14.3-38.1,28.9c-5.8,9.3-7,19.5-5.1,29.5c3,15.7,6.8,31.2,11.4,46.5
	c3.3,11.7,10.7,21.8,20.8,28.6c9.6,6.5,18.2,5.4,26.5-2.1c13.9-12.5,22.3-28.5,30.7-44.9c6.8-13.4,10.4-27.1,9.3-42.1
	c-0.6-7.5-2.9-14.7-7.6-20.4c-9.5-11.4-21.2-20-35.9-23.5c-3.7-0.9-7.6-0.4-11.5-0.6"/>
<path class="st4" d="M1148.4,611.9c-11.5,2.7-21.2,10.7-25.9,21.5c-3.7,8-3.4,16.5-1.5,25c3.1,13.6,6.2,27.3,13.5,39.5
	c6.7,11.1,16.6,15.6,28.9,6.5c3.5-2.6,6.6-5.8,9-9.5c7.7-12.1,15.3-24.2,17.8-38.9c1.8-10.7-0.9-19.8-6.9-27.9
	c-4.9-6.6-11.3-12-19.4-14.4c-4.7-1.4-10-1.2-15-1.7"/>
<path class="st4" d="M1237.9,622.4c-5.2,2.2-7.4,7.5-6,14.5c0.2,1,0.8,2,1,3c0.6,4.8,2.4,8.8,7.6,10c4.9,1.2,12.5-1.7,14.3-6
	c1.1-2.8,1.1-6,0-8.8c-3.2-6.8-8.4-11.6-16.3-12.6"/>
<path class="st0" d="M1148.4,626.9c-12.5,4.4-18.8,15.3-15.3,29c2,7.5,5.1,14.7,9,21.5c5.3,9.4,13.9,10.4,21.2,2.5
	c5.8-6.2,10.2-13.5,11.7-22.4c3-17.8-7.2-30.5-25.1-30.5h-1"/>
<path class="st4" d="M1742.3,626.9c-9.4,3.3-12.4,12-11.3,17c2.6,11.6,11.3,13.2,20.2,9.3c3.2-1.4,5.8-4.8,7.9-7.9
	c1-1.5,0.9-4.5,0-6.3c-3.2-7-8-12-16.4-12"/>
<path class="st0" d="M1667.3,656.9c-8.8,1.7-11.6,8.7-14.6,16s-6.2,14.5-10.6,20.9c-7.3,10.7-18.6,16.9-29.3,23.6
	c-8.8,5.4-18.3,9.7-25.6,17.4c-4.8,5-7.4,11.7-7.4,18.6c-0.3,22.2,7.6,41.7,21.7,58.3c7,8.4,16.9,12.2,28.8,10.4
	c9.7-1.5,18.7-4.8,28-7.7c11.9-3.6,23.9-7.2,36.5-6.5c13.9,0.8,17.7,3.7,23.1,15.9c6.2,14.1,13.7,27.7,20.3,41.6
	c5.4,11.4,10.8,22.8,15.4,34.5c3.5,9.1,6.1,18.5,8.5,28c1.4,5.3,1.7,11,2.6,16.5c1,6.3,5,8.9,10.9,6.4c4.1-1.7,8.4-3.9,11.4-7
	c11.3-11.5,22.2-23.5,33.1-35.4c8.1-8.8,9.8-19.2,6.5-30.5c-6.1-20.8-15.8-39-34.9-51c-10.7-6.7-22.4-10.3-34.5-13
	c-9.3-2.1-18.7-4.1-28-6.5c-9.6-2.5-12.6-10.2-14.6-18.9c-2.2-9.7-4.8-19.4-7.5-29c-3.2-11.2-10.9-19.6-18.5-28
	c-6.9-7.7-13.2-15.7-15.4-26c-1.3-5.9-0.4-11.7,1.4-17.5c1.7-5.4,3.2-11,4.5-16.5c2-8.2-2.6-14-11.5-14.5"/>
<path class="st0" d="M1272.4,684.8c-5.7,1.8-11.8,2.8-16.9,5.7c-12,6.6-18.9,17.2-19.4,30.8c-0.2,8.3,2.4,16.3,7.3,23
	c2.8,4,5.9,7.7,9,11.5c9.5,11.9,7.2,23.6-6.6,30.3c-4.3,2.1-9.5,3.1-14.4,3.5c-12.9,1.2-25.8,1.7-37.5,8.5
	c-10.4,6.1-18.5,14.3-26,23.5c-4.7,5.7-9.7,11.4-15.6,15.9c-6.7,5.1-14.8,5.6-23.4,5.4c-14.5-0.4-27.3-6.3-40.4-10.9
	c-13.6-4.7-26.7-4.4-40,0.1c-15.5,5.2-30.9,10.7-46.5,15.4c-6.4,1.9-13.3,2.3-20,3.1c-5.6,0.6-11.3,0.6-17,1.1
	c-6.2,0.6-10.9,5.8-10.9,12c0.1,4.9,0.8,9.7,2,14.5c2.9,11.7,6.4,23.3,9.4,35c3.8,15.1,12.8,25.7,27.6,30.4
	c13.3,4.2,27,7.3,40.5,11.2c11.6,3.3,23.3,5.8,35.5,6.1c14.1,0.4,26.1-4.3,37-12.6c9.3-7.1,18.5-14.4,29.4-19.1
	c11.8-5.1,23.5-10.2,36-12.9c11.1-2.3,20,1.2,27,10c4.3,5.4,8.6,10.8,12.5,16.5c10.4,15.3,25.2,23.1,43,26c19,3.2,38.3,4.1,57.5,2.7
	c21.8-1.7,37.7-12.8,44.6-34.7c1.5-4.8,3.7-9.3,5.4-14c2.9-8.2,10.9-8.3,17.5-5.9c9.1,3.3,14.4,10.7,18.5,18.9
	c6.4,13,13,25.9,22.5,37c8.9,10.5,18.4,20.3,29.5,28.5c13.6,10.1,28,10.5,43,4.8c10.9-4.1,21.2-9.6,32.1-13.8
	c7.4-2.8,15.2-4.7,23-6.6c13.7-3.4,23.2-11,25.3-27.6c1.2-9.9-3.4-18.6-9.3-26.5c-7.8-10.4-18.3-17.8-28.6-25.4
	c-12.3-9.1-22.7-19.9-32.6-31.5c-8.5-10-20-14.9-33.3-16.3c-21.7-2.3-41.7,4-62,9.5c-8.5,2.4-17.2,3.9-26,4.4
	c-14.6,0.7-23.6-6.8-26.8-22.3c-2-10.2-3.4-20.6-4-31c-0.7-8.8-0.7-17.7,0-26.5c0.7-8.4,2.9-16.7,4.3-25c1.9-11.3,4.1-22.5,1.5-34
	c-1.7-7.6-4.8-10.1-12.5-10c-4.5,0.1-9,0.8-13.5,0.9c-10,0.1-14.8-2-19.5-11c-3-5.7-5.4-11.7-9.1-16.9c-6.8-9.6-16.7-13.3-28.4-12.1
	"/>
<path class="st4" d="M1640.3,725.9c-6.8,2-13.9,3.4-20.4,6.1c-8.1,3.2-15.2,8.5-20.6,15.3c-6.8,8.8-6.6,18.6-4.3,28.5
	c2.9,12.8,9.5,23.1,21.9,29.1c6.4,3.1,13.2,2.8,19.5,1.7c16-3,30.8-9.6,44.5-18.4c10.4-6.6,12-17.1,7.1-28.4
	c-3.8-8.6-10.6-14.7-17.6-20.4c-4.6-3.9-9.6-7.2-15-9.9c-4.4-2.1-9.6-2.5-14.4-3.7"/>
<path class="st4" d="M972.4,727.8c-12.4,2.8-19.7,10.7-23.5,22.5c-2.7,8.2,0.2,15.7,8,18.9c10.2,4.2,20.8,5.6,31.4,1.5
	c10.9-4.2,18.6-15.3,16.3-28.4c-1-5.6-6-8.8-11.3-11.1c-6.5-2.7-13.5-3.9-20.5-3.4"/>
<path class="st4" d="M1835.3,733.9c-9.8,3-19.7,5.9-29.5,9c-10.3,3.3-20.6,2-31,0.5c-4.3-0.6-8.8-1.1-13-0.4
	c-9.6,1.6-14.8,12.1-11.5,22.3c3.7,11.2,12.1,16.9,23,19.5c14.1,3.3,27.7,8.3,40.5,15c10.3,5.4,21.1,8.9,33,9.2
	c5.4,0.2,10.2-3.1,11.9-8.2c5.8-18.4,4.9-36.6-2.4-54.5c-3.7-9.2-10.2-14.1-20.5-12.5"/>
<path class="st4" d="M1634.3,746.9c-5,1.8-10.3,3.1-14.9,5.6c-7,3.9-10.8,12.7-9.1,19.9c2.5,10.5,7.8,16,17.5,17.5
	c13.1,2,23.7-3.6,32.4-12.6c7.5-7.8,5.5-15.8-3-22.8c-6.3-5.3-14.3-8-22.4-7.6"/>
<path class="st4" d="M1308.5,774.5c-13,3-23,10.7-32.5,19.5c-8.3,7.7-16.8,15.5-28,18.3c-6,1.5-12.6,0.9-18.9,0.6
	c-4-0.2-8-1.7-12-2.3c-13.7-2.4-25.1,4.5-30.1,17.5c-3.4,8.9-2.2,17,3.1,24.5c10.1,14.3,15.8,30.8,23,46.5
	c5.2,11.3,10.3,22.7,16.6,33.4c6.1,10.4,16.8,15.2,28.3,16.9c9.7,1.6,19.6,2.2,29.5,1.9c9.2-0.3,18.6-1.2,27.6-4.6
	c16.8-6.3,20.6-21.1,14.4-35.6c-2.2-5.2-4.9-10.2-6.9-15.5c-3.3-8.6-1.7-16.8,3-24.5c3.5-5.7,8-11,10.8-17.1
	c2.2-5,3.4-10.4,3.6-15.9c0.8-15.5-0.7-30.8-5.9-45.5c-1.3-3.7-2.9-7.2-5-10.5c-4.7-7.2-12-8.3-19.9-7.5"/>
<path class="st4" d="M1305.5,800.5c-9.6,1.9-17.3,7.1-24.6,13.4c-10.8,9.3-23.4,16.3-35.9,23.1c-10.4,5.7-18.2,13.8-19.3,26
	c-0.8,8.8-0.5,17.7,1,26.4c1.8,10.3,6,20,10.6,29.6c5.9,12.2,15.6,18.5,28.2,20.2c9.5,1.3,19.4,0.7,28.4-3
	c12-4.8,17.9-11.8,13.7-27.4c-1.8-6.8-3.5-14-3.4-21c0.2-10,3.5-19.8,9.3-28c4.6-6.7,9.9-13,11.9-21c3.1-12,2.1-23.2-6.4-33
	c-3.5-4-8-5.2-13-5.5"/>
<path class="st4" d="M1760.3,831.9c-0.5,0.2-1,0.4-1.5,0.5c-11.6,1.5-12.4,8.1-9.3,16.9c3.6,10.2,8.6,19.8,13.4,29.5
	c3.4,6.9,7.4,13.5,11.4,20c9.3,15,23.3,9,31,0.5c8-8.8,7.8-18.8,3.4-29c-8-18.6-21.1-32-41.4-37c-2.2-0.5-4.3-1-6.5-1.5"/>
<path class="st4" d="M1073.4,851.9c-7.7,1.7-15.4,3-23,5.1c-13.8,3.9-26.6,10.6-38.4,18.6c-6.9,4.6-10.8,12.5-10.1,20.8
	c0.3,5-0.1,10.1,0.6,15c2,13.9,11.2,22.2,23.5,26.9c15.3,6,31,10.9,46.9,14.8c17.6,4.2,32.9,0.9,45.9-10.9
	c11.1-10.1,23.8-18.2,37.6-24c8.3-3.5,16.5-8.8,20.9-16.9c7.1-13.1,6.7-28.8-13.3-34.3c-11.8-3.2-23.9-5.6-36-8
	c-11.4-2.3-23-4.3-34.5-6c-6.4-0.9-13-0.8-19.5-1.1"/>
<path class="st4" d="M868.4,855.8c-5.4,3.9-6.6,11.4-2.8,16.7c0.8,1.1,1.7,2,2.8,2.8c3.7,2.6,6.6,2,9-2c4.1-6.9-0.3-16.1-8.5-17.5"
	/>
<path class="st4" d="M745.4,862.8c-4.5,1.2-9.2,1.9-13.5,3.6c-15.3,6.2-23.3,18.5-27,33.9c-2.9,12.5-3.2,25.4-1,38
	c1.9,11.4,4.7,22.6,6.3,34c0.9,6.6,0.9,13.3,0,20c-2.1,14.2-1.5,27.4,8.2,39c5.9,7,13.7,10.5,22.5,11.4c6.5,0.8,13,0.8,19.5-0.1
	c8.8-1.4,11.8-7.9,10.7-16.8c-1.2-9.8-6.7-17.3-11.2-25.5c-3-5.4-6.3-10.7-6.9-17c-0.8-8.8,3.8-15.6,9.5-21.4
	c7.5-7.8,15.6-15.1,23.4-22.6c9.6-9.2,16-20.5,17.8-33.5c1.9-13.7-2.8-25.4-18.8-32.3c-8.5-3.7-17.5-6.4-26.5-9
	c-4-1.2-8.3-1.1-12.5-1.6"/>
<path class="st4" d="M1061.4,871.9c-5.7,1.8-11.5,3.3-17,5.6c-8.1,3.4-14.6,9.8-18,17.9c-6.1,13.7-1.6,23.6,9,30.9
	c11.3,7.8,24.1,11.9,37.4,14.6c6.5,1.4,13.3,0.9,19.5-1.5c11.6-4.2,18.9-19.7,17.4-31.1c-0.3-2-1.1-3.9-2.5-5.4
	c-6.5-6.7-13.3-13-19.9-19.6c-7.1-7.1-15.9-10.2-25.5-11.5"/>
<path class="st4" d="M1445.4,875.4c-5.3,1.5-11,2.4-15.9,4.7c-5.9,2.6-11.4,6-16.5,10c-5.7,4.5-8.2,10.5-6.2,18.4
	c3.5,14.3,7,28.6,13.2,41.9c6.9,14.5,18.1,25.3,31.8,33.6c9.9,5.9,20.6,9.8,32,8.2c9-1.3,18-4.4,26.5-7.9
	c10.8-4.5,21.2-9.9,31.5-15.4c10.9-5.8,11.5-19.8,5.1-29c-5.6-7.9-13.4-13.3-21-19c-7.1-5.2-14.7-9.9-21.4-15.7
	c-5.9-5-10.7-11.3-16.1-16.8c-8.6-8.8-19-13.5-31.5-13c-3.7,0.2-7.3,0-11,0"/>
<path class="st4" d="M743.4,875.8c-20.3,5-26.9,22.1-26.3,40c0.1,8.4,2.7,16.5,7.2,23.5c6.7,10,13.7,10.9,23,8.8
	c16.7-3.6,30-12.9,38.9-27.5c5.8-9.4,7.6-22.5,0.1-30.3c-2.9-3.2-6.3-5.9-10-8c-9.9-5.3-21.2-7.6-32.4-6.6"/>
<path class="st4" d="M1637.5,880.2c-6,1.3-10.3,4.9-13.5,10c-6.5,10.5-1.7,19.3,7.9,22.2c8.4,2.5,19.7-1.2,22.2-9.1
	c3.6-11.3-4.2-22.9-16.2-23"/>
<path class="st4" d="M1135.9,889.4c-2.3,0.9-5.7,1.1-4.4,5c0.9,2.6,4.9,3,7.9,1c1.1-0.8,1.7-2.3,2.6-3.4l-5.5-2.5"/>
<path class="st4" d="M1451.4,891.4c-6.4,1.6-12.6,3.4-17.1,9c-3.4,3.9-5.3,8.8-5.5,14c-0.6,15.3,2.5,29.5,12.6,41.5
	c11.1,13.2,24.8,21.2,42.5,20.4c14.3-0.7,28-6.1,38.9-15.5c7.2-6.1,7.1-15.2,0.6-21.3c-3.6-3.5-7.4-6.6-11.5-9.5
	c-12-8-23.1-17.4-33-28c-4.9-5.2-10.8-9-18-10c-3-0.4-6-0.4-9-0.5"/>
<path class="st4" d="M774.4,901.9c-11.9,5-11.3,14.9-5,21c3.2,3,10.6,3.1,15,0.5s7.3-8.5,6.5-13c-0.8-4.1-5.7-8.2-10.5-8.5
	c-1.8-0.1-3.7,0-5.5,0"/>
<path class="st4" d="M1290.5,837.5c-11.1,3-21.8,6.8-31.5,13c-17.3,11.1-19.3,25.5-15.8,43c1.5,7.2,4.7,13.9,9.3,19.6
	c10.7,13.4,27.4,11.7,33.9-2.1c2-4.4,2.6-9.9,2.6-14.9c0.1-16.1,2.4-32.1,7-47.5c1.8-6.1,0-9.2-4.9-11"/>
<path class="st4" d="M902.4,1002.9c-6.3,1.6-7.6,8-2,12c3.6,2.6,8.3,3.3,12.4,1.8c1.8-0.6,3.5-3.6,3.9-5.8c0.7-3.8-2.4-5.8-5.4-6.8
	c-2.6-0.9-5.6-0.8-8.5-1.1"/>
<path class="st4" d="M1049.1,1025.8c-11.4,3.9-18.2,11.9-20.4,23.5c-1.6,8.1,1.6,12.2,9.9,13.4c13.3,1.9,23.6-4.4,27.5-16.5
	c2.6-7.9-1.1-17.3-8-19.9c-2.6-0.9-5.6-0.4-8.4-0.6"/>
<path class="st4" d="M1811.3,998.9c-4.7,1.2-9.5,1.9-14,3.6c-8.8,3.2-16.1,8.6-18.9,18c-1.8,6.4-1.3,13.3,1.5,19.4
	c4.7,11.1,11.3,20.9,20.9,28.6c11,8.8,19.2,4,23.3-6.6c3.9-9.9,5.9-20.4,3.8-31.4c-1.2-6.2-0.6-12.7-1.2-19c-0.4-4.3-0.3-9.3-5-11.3
	c-3-1.2-6.6-0.8-9.9-1.2"/>
</svg>
